<?xml version="1.0" encoding="UTF-8"?>
<svg width="52px" height="40px" viewBox="0 0 52 40" version="1.1" xmlns="http://www.w3.org/2000/svg" xmlns:xlink="http://www.w3.org/1999/xlink">
    <!-- Generator: Sketch 53.2 (72643) - https://sketchapp.com -->
    <title>pwc</title>
    <desc>Created with Sketch.</desc>
    <g id="Page-1" stroke="none" stroke-width="1" fill="none" fill-rule="evenodd">
        <g id="1.-home" transform="translate(-751.000000, -1705.000000)" fill-rule="nonzero">
            <g id="recent-projects" transform="translate(-453.000000, 1103.000000)">
                <g id="cards" transform="translate(588.000000, 425.000000)">
                    <g id="pwc" transform="translate(600.000000, 0.000000)">
                        <g transform="translate(16.000000, 177.000000)">
                            <polygon id="path4061" fill="#E669A2" points="52 17 33 17 33 12 52 12"></polygon>
                            <polygon id="path4103" fill="#F3BE26" points="50 17 33 17 33 5 50 5"></polygon>
                            <polygon id="path4089" fill="#EE9C34" points="42 17 33 17 33 0 42 0"></polygon>
                            <polygon id="path4075" fill="#F3BC87" points="45 17 33 17 33 2 45 2 45 17"></polygon>
                            <polygon id="path4688" fill="#E3721C" points="33 2 33 17 42 17 42 2"></polygon>
                            <polygon id="path4119" fill="#AD1B02" points="24 18 33 18 33 20 24 20"></polygon>
                            <polygon id="path4698" fill="#E88D14" points="33 5 33 17 45 17 45 5"></polygon>
                            <polygon id="path4693" fill="#D85604" points="33 5 33 17 42 17 42 5"></polygon>
                            <polygon id="path4117" fill="#C14303" points="39 17 33 17 33 10 39 10"></polygon>
                            <polygon id="path4713" fill="#DB4E18" points="33 12 33 17 50 17 50 12"></polygon>
                            <polygon id="path4708" fill="#D1390D" points="33 12 33 17 45 17 45 12"></polygon>
                            <polygon id="path4703" fill="#C22303" points="33 12 33 17 42 17 42 12"></polygon>
                            <polygon id="path4625" fill="#AD1B02" points="33 18 33 23 39 23 39 18"></polygon>
                            <path d="M35.4914772,27.060606 C33.8295454,27.3434342 32.9431817,28.5454548 32.9431817,30.6313131 C32.9431817,32.7525251 34.1250003,34.1666668 35.8607957,34.1666668 C36.7102274,34.1666668 37.4488639,33.8838382 39,33.1414141 C39,34.8737372 39,34.8737372 39,34.8737372 C37.1164774,35.7222221 36.0085229,35.9343432 34.5312499,35.9343432 C32.8693181,35.9343432 31.6875,35.5454548 30.7642047,34.590909 C29.8039774,33.6717171 29.2869317,32.469697 29.2869317,31.090909 C29.2869317,28.0858588 31.6505684,26 35.0852271,26 C37.3380682,26 38.9261364,27.0252528 38.9261364,28.4747477 C38.9261364,29.429293 38.1874999,30.1010101 37.1164774,30.1010101 C36.5625002,30.1010101 36.119318,29.9242422 35.4914772,29.6060608 L35.4914772,27.060606 Z M27.1818183,31.090909 L23.3778411,35.7929291 C23.3778411,35.7929291 23.3778411,35.7929291 20.6079548,35.7929291 C20.6079548,35.7929291 20.6079548,35.7929291 20.6079548,29.8535352 C20.6079548,29.8535352 20.6079548,29.8535352 16.8409091,35.7929291 C16.8409091,35.7929291 16.8409091,35.7929291 14.3664772,35.7929291 C14.3664772,35.7929291 14.3664772,35.7929291 14.3664772,28.1212121 C14.3664772,28.1212121 14.3664772,28.1212121 12.409091,27.9444442 C12.409091,27.9444442 12.409091,27.9444442 12.409091,27.060606 C12.409091,27.060606 12.409091,27.060606 15.9914774,26.2828281 C15.9914774,26.2828281 15.9914774,26.2828281 17.3210228,26.2828281 C17.3210228,26.2828281 17.3210228,26.2828281 17.3210228,32.469697 C17.3210228,32.469697 17.3210228,32.469697 21.2357956,26.2828281 C21.2357956,26.2828281 21.2357956,26.2828281 23.5994319,26.2828281 C23.5994319,26.2828281 23.5994319,26.2828281 23.5994319,33.4949497 C23.5994319,33.4949497 23.5994319,33.4949497 26.0738638,30.3131312 C26.0738638,30.3131312 26.0738638,30.3131312 26.0738638,26.6010101 C26.3323866,26.3181819 26.8863639,26 27.4772727,26 C28.5113636,26 29.2500001,26.7777779 29.2500001,27.6616161 C29.2500001,28.5454548 28.6960229,29.2878789 27.1818183,31.090909 Z M4.91193173,34.590909 C5.20738613,34.590909 5.28125026,34.590909 5.46590899,34.590909 C7.46022723,34.590909 8.56818175,33.4242422 8.56818175,31.090909 C8.56818175,29.1464648 7.68181803,28.0858588 6.01988625,28.0858588 C5.79829545,28.0858588 5.46590899,28.1212121 4.91193173,28.2272729 L4.91193173,34.590909 Z M4.91193173,38.7626261 C6.53693197,39.1161618 6.53693197,39.1161618 6.53693197,39.1161618 C6.53693197,40 6.53693197,40 6.53693197,40 C0.147727199,40 0.147727199,40 0.147727199,40 C0.147727199,39.1161618 0.147727199,39.1161618 0.147727199,39.1161618 C1.62500024,38.7626261 1.62500024,38.7626261 1.62500024,38.7626261 C1.62500024,28.0858588 1.62500024,28.0858588 1.62500024,28.0858588 C-1.77635684e-15,28.0858588 -1.77635684e-15,28.0858588 -1.77635684e-15,28.0858588 C-1.77635684e-15,27.2020201 -1.77635684e-15,27.2020201 -1.77635684e-15,27.2020201 C3.87784082,26.070707 3.87784082,26.070707 3.87784082,26.070707 C4.91193173,26.070707 4.91193173,26.070707 4.91193173,26.070707 C4.91193173,27.3434342 4.91193173,27.3434342 4.91193173,27.3434342 C6.72159071,26.2828281 7.34943209,26.1060608 8.30965889,26.1060608 C10.4517043,26.1060608 12.0767046,28.0151518 12.0767046,30.6666668 C12.0767046,33.7070709 9.89772707,35.7929291 6.57386351,35.7929291 C6.20454551,35.7929291 5.57670466,35.7575759 4.91193173,35.7222221 L4.91193173,38.7626261 Z" id="Combined-Shape" fill="#161617"></path>
                        </g>
                    </g>
                </g>
            </g>
        </g>
    </g>
</svg>