<?xml version="1.0" encoding="UTF-8"?>
<svg width="200px" height="32px" viewBox="0 0 200 32" version="1.1" xmlns="http://www.w3.org/2000/svg" xmlns:xlink="http://www.w3.org/1999/xlink">
    <!-- Generator: Sketch 53.2 (72643) - https://sketchapp.com -->
    <title>tsd</title>
    <desc>Created with Sketch.</desc>
    <g id="Page-1" stroke="none" stroke-width="1" fill="none" fill-rule="evenodd">
        <g id="1.-home" transform="translate(-1051.000000, -2049.000000)" fill="#1D7DEB">
            <g id="recent-projects" transform="translate(-453.000000, 1103.000000)">
                <g id="cards" transform="translate(588.000000, 425.000000)">
                    <g id="transcendence" transform="translate(900.000000, 342.000000)">
                        <path d="M194.406955,194.114038 C194.406955,190.591214 195.985366,188.9712 199.36639,188.9712 C202.636342,188.9712 204.177472,190.480799 204.252548,193.759588 L201.565727,193.759588 C201.509419,192.083729 200.90752,191.374829 199.404186,191.374829 C197.825517,191.374829 197.225418,192.156659 197.225418,194.170138 L197.225418,196.890732 C197.225418,198.903956 197.825517,199.686041 199.404186,199.686041 C200.90752,199.686041 201.509419,198.978671 201.565727,197.319897 L204.252548,197.319897 C204.177472,200.581601 202.636342,202.0912 199.36639,202.0912 C195.985366,202.0912 194.406955,200.469656 194.406955,196.946577 L194.406955,194.114038 Z M119.242547,194.114038 C119.242547,190.591214 120.819416,188.9712 124.20224,188.9712 C127.472192,188.9712 129.013064,190.480799 129.088398,193.759588 L126.401577,193.759588 C126.345012,192.083729 125.743112,191.374829 124.239778,191.374829 C122.661367,191.374829 122.06101,192.156659 122.06101,194.170138 L122.06101,196.890732 C122.06101,198.903956 122.661367,199.686041 124.239778,199.686041 C125.743112,199.686041 126.345012,198.978671 126.401577,197.319897 L129.088398,197.319897 C129.013064,200.581601 127.472192,202.0912 124.20224,202.0912 C120.819416,202.0912 119.242547,200.469656 119.242547,196.946577 L119.242547,194.114038 Z M107.681502,192.865559 C107.681502,190.275525 109.278682,188.9712 112.32289,188.9712 C115.329558,188.9712 116.814124,190.238295 116.814124,192.903044 L114.070738,192.903044 C114.070738,191.803739 113.487607,191.262884 112.266582,191.262884 C111.101864,191.262884 110.501508,191.747894 110.501508,192.585824 C110.501508,193.537228 111.158429,193.964863 112.962585,194.225983 C115.950484,194.655148 116.983303,195.791682 116.983303,198.176441 C116.983303,200.80549 115.423661,202.0912 112.229044,202.0912 C108.977861,202.0912 107.495096,200.82232 107.495096,198.045882 L110.238225,198.045882 C110.238225,199.277276 110.932684,199.816601 112.30412,199.816601 C113.544172,199.816601 114.164841,199.370606 114.164841,198.456176 C114.164841,197.413227 113.487607,196.965192 111.590891,196.666842 C108.75366,196.220592 107.681502,195.175858 107.681502,192.865559 Z M207.055584,189.19356 L215.812051,189.19356 L215.812051,191.598719 L209.874047,191.598719 L209.874047,194.225983 L214.873078,194.225983 L214.873078,196.610742 L209.874047,196.610742 L209.874047,199.463681 L216,199.463681 L216,201.86731 L207.055584,201.86731 L207.055584,189.19356 Z M188.728891,189.19356 L191.396944,189.19356 L191.396944,201.86731 L188.710122,201.86731 L184.068478,193.332208 L184.068478,201.86731 L181.398882,201.86731 L181.398882,189.19356 L184.386782,189.19356 L188.728891,197.189082 L188.728891,189.19356 Z M169.726508,189.19356 L178.482974,189.19356 L178.482974,191.598719 L172.54497,191.598719 L172.54497,194.225983 L177.544001,194.225983 L177.544001,196.610742 L172.54497,196.610742 L172.54497,199.463681 L178.67118,199.463681 L178.67118,201.86731 L169.726508,201.86731 L169.726508,189.19356 Z M157.021313,189.19356 L161.77583,189.19356 C165.213419,189.19356 166.735522,190.759004 166.735522,194.188753 L166.735522,196.872117 C166.735522,200.320226 165.213419,201.86731 161.77583,201.86731 L157.021313,201.86731 L157.021313,189.19356 Z M159.839776,191.579849 L159.839776,199.480766 L161.380649,199.480766 C163.279165,199.480766 163.91706,198.792011 163.91706,196.816017 L163.91706,194.244598 C163.91706,192.268604 163.279165,191.579849 161.380649,191.579849 L159.839776,191.579849 Z M150.892018,189.19356 L153.559813,189.19356 L153.559813,201.86731 L150.872992,201.86731 L146.231604,193.332208 L146.231604,201.86731 L143.563552,201.86731 L143.563552,189.19356 L146.551452,189.19356 L150.892018,197.189082 L150.892018,189.19356 Z M131.891434,189.19356 L140.647644,189.19356 L140.647644,191.598719 L134.709897,191.598719 L134.709897,194.225983 L139.70867,194.225983 L139.70867,196.610742 L134.709897,196.610742 L134.709897,199.463681 L140.83585,199.463681 L140.83585,201.86731 L131.891434,201.86731 L131.891434,189.19356 Z M102.247952,189.19356 L104.916004,189.19356 L104.916004,201.86731 L102.229183,201.86731 L97.5877954,193.332208 L97.5877954,201.86731 L94.919743,201.86731 L94.919743,189.19356 L97.9073856,189.19356 L102.247952,197.189082 L102.247952,189.19356 Z M85.6331114,189.19356 L88.545677,189.19356 L92.8299361,201.86731 L89.8420362,201.86731 L89.0349615,199.314506 L85.0142424,199.314506 L84.2051107,201.86731 L81.3491096,201.86731 L85.6331114,189.19356 Z M87.0235736,192.361934 L85.7084452,196.984062 L88.3405017,196.984062 L87.0235736,192.361934 Z M70.1847882,189.19356 L75.4077633,189.19356 C78.5460734,189.19356 79.785868,190.368854 79.785868,193.201393 C79.785868,195.269188 79.1104344,196.463352 77.5129972,196.927962 L80.2751522,201.86731 L77.0615083,201.86731 L74.5253546,197.189082 L73.0032508,197.189082 L73.0032508,201.86731 L70.1847882,201.86731 L70.1847882,189.19356 Z M73.0032508,191.579849 L73.0032508,194.804323 L75.106685,194.804323 C76.4801777,194.804323 76.9674051,194.337928 76.9674051,193.201393 C76.9674051,192.044714 76.4801777,191.579849 75.106685,191.579849 L73.0032508,191.579849 Z M58.3620026,189.19356 L68.0196472,189.19356 L68.0196472,191.635949 L64.6008275,191.635949 L64.6008275,201.86731 L61.7823648,201.86731 L61.7823648,191.635949 L58.3620026,191.635949 L58.3620026,189.19356 Z M32.0462131,211 C23.1841343,211 16,203.836556 16,195 C16,186.163444 23.1841343,179 32.0462131,179 C40.9082919,179 48.0924262,186.163444 48.0924262,195 C48.0924262,203.836556 40.9082919,211 32.0462131,211 Z M27.4615001,191.553618 C27.4615001,192.646947 27.9362272,193.632621 28.8631451,194.533079 C29.505373,195.15711 30.3094716,195.708491 31.55605,196.396185 C31.621451,196.432157 31.621451,196.432157 31.7355397,196.494118 C31.864672,196.564096 32.0335288,196.654968 32.2447339,196.768224 C32.456736,196.8819 32.9962377,197.170365 33.0157325,197.180908 C33.5450861,197.46809 33.8928926,197.673985 34.1681051,197.864028 C34.2408579,197.914438 34.307788,197.963287 34.3688506,198.010516 C35.2121551,198.665472 35.690107,199.722792 35.7966339,201.214002 L28.2746313,201.214002 C28.2403565,199.972733 28.7045559,198.902373 29.6915528,197.94902 L29.8122041,197.832481 L28.596128,196.593073 L28.476666,196.708453 C26.8963154,198.234808 26.2693948,200.103597 26.6287221,202.222984 L26.7273344,202.805518 L26.7508521,202.944444 L37.5457997,202.944444 L37.5602801,202.094097 C37.6027916,199.611866 36.8991994,197.778666 35.4419407,196.647011 C35.3550181,196.579735 35.2624412,196.512128 35.1635861,196.443691 C34.9295259,196.281998 34.6673941,196.119775 34.3373208,195.931804 L33.6335737,195.545691 C33.5085861,195.478866 33.50759,195.478333 33.3413674,195.388601 C33.3148395,195.37379 33.3148395,195.37379 33.2734142,195.350757 C33.1680204,195.292248 33.1680204,195.292248 33.0023872,195.20049 C32.7614675,195.067066 32.3998956,194.867046 31.9176585,194.600424 C31.8523819,194.569301 31.8064166,194.543452 31.7209865,194.492001 L31.5744005,194.411249 C29.9092712,193.382185 29.2041935,192.532 29.2041935,191.553618 C29.2041935,189.942331 30.3513095,188.786147 31.9947246,188.786147 C33.6378822,188.786147 34.784956,189.942372 34.784956,191.553618 C34.784956,192.175337 34.5106198,192.697181 33.8994375,193.234464 L33.7734368,193.34523 L34.9296291,194.639916 L35.0543883,194.530259 C36.0334196,193.669745 36.5276494,192.694898 36.5276494,191.553618 C36.5276494,188.992012 34.6071168,187.055556 31.9947246,187.055556 C29.3821788,187.055556 27.4615001,188.992019 27.4615001,191.553618 Z" id="tsd"></path>
                    </g>
                </g>
            </g>
        </g>
    </g>
</svg>