<?xml version="1.0" encoding="UTF-8"?>
<svg width="115px" height="32px" viewBox="0 0 115 32" version="1.1" xmlns="http://www.w3.org/2000/svg" xmlns:xlink="http://www.w3.org/1999/xlink">
    <!-- Generator: Sketch 53.2 (72643) - https://sketchapp.com -->
    <title>kalinga</title>
    <desc>Created with Sketch.</desc>
    <g id="Page-1" stroke="none" stroke-width="1" fill="none" fill-rule="evenodd">
        <g id="1.-home" transform="translate(-755.000000, -2050.000000)" fill="#D92B2B">
            <g id="recent-projects" transform="translate(-453.000000, 1103.000000)">
                <g id="cards" transform="translate(588.000000, 425.000000)">
                    <g id="kalinga" transform="translate(600.000000, 342.000000)">
                        <g transform="translate(20.000000, 180.000000)">
                            <path d="M15.1838134,0 C15.2260661,0 15.2672222,0 15.3081202,0.00138036016 C23.6228706,0.0702014061 30.3676268,7.0022074 30.3676268,15.5139005 C30.3676268,18.1722725 29.7089363,20.6738903 28.5528895,22.8633541 C25.9774747,27.6989335 20.9403726,31.0291557 15.1838134,31.0291557 C10.1943826,31.0291557 5.76179721,28.5571471 2.99206513,24.7515014 C2.97353845,24.7256337 2.95501177,24.6972502 2.93378221,24.6688667 C1.09121624,22.102354 0,18.9357885 0,15.5139005 C0,6.9777589 6.78294493,0.0297764116 15.1309169,0 L15.1838134,0 Z M27.4668339,18.3763756 L27.4668339,18.375021 C27.6718402,17.4546863 27.784342,16.4963564 27.784342,15.5125458 C27.784342,14.0813083 27.5541132,12.7027092 27.1308766,11.4161629 C27.0648205,11.2188331 26.995926,11.0227935 26.9204517,10.8295277 L26.9204517,10.8281731 C26.8929068,10.7552146 26.8651039,10.6836108 26.8359463,10.612007 C26.7776312,10.4673157 26.7168647,10.3255272 26.6533889,10.1848999 C26.6217155,10.1147153 26.5898486,10.0443371 26.556885,9.974088 L26.556885,9.97273333 C26.4694122,9.78617638 26.3781335,9.60374794 26.2816296,9.42254515 C25.7089927,8.33461882 24.9854717,7.33997096 24.138805,6.46698506 C23.5753927,5.88448485 22.9589549,5.35738406 22.297555,4.89378488 C22.130802,4.77743837 21.9628879,4.66543324 21.7923289,4.55716957 C21.5991276,4.43550115 21.4034105,4.31935461 21.2036294,4.20852998 C21.1374443,4.17067027 21.0714527,4.13556505 21.0039129,4.09908582 C20.2882618,3.71652795 19.5330674,3.40160666 18.7446514,3.16517218 L18.7432968,3.16517218 C18.546225,3.10561845 18.3478631,3.05020613 18.1480821,3.00169617 L18.1467274,3.00169617 C17.9205626,2.94628385 17.6929786,2.89619989 17.4615886,2.85301182 C17.3757285,2.83684614 17.2882558,2.82047402 17.2023957,2.80706927 C16.5925377,2.70432748 15.9695201,2.64891517 15.3345684,2.64221279 L15.3081202,2.31368678 L15.3081202,2.1947793 C15.3067655,2.20562308 15.302895,2.21232546 15.3015404,2.22041475 C15.2857359,2.31920866 15.2870906,2.43259426 15.3081202,2.56096505 C15.3135389,2.58936144 15.3173448,2.6138164 15.3214088,2.64221279 C15.298831,2.64221279 15.2750921,2.64083232 15.2525143,2.64083232 C15.2750921,2.64221279 15.298831,2.64359326 15.3214088,2.64359326 C15.3293433,2.68678132 15.3359231,2.727202 15.3424384,2.77058358 L15.3437931,2.77453147 C15.3764341,2.97057754 15.4103008,3.16493995 15.4439739,3.35789608 C15.7406459,5.05920903 16.018159,6.65109071 15.2340006,8.32262034 C14.769866,9.31449436 14.1005316,10.1821261 13.3968146,11.0174394 C13.2551551,11.1836763 13.1136892,11.3485586 12.9708687,11.5134409 C12.8994584,11.5958175 12.8280481,11.6796778 12.757799,11.7620545 C12.5435681,12.0079587 12.3320466,12.2540565 12.1255567,12.5027346 C12.1189769,12.5107981 12.1124616,12.5189261 12.1045271,12.5283442 C12.0977538,12.5364722 12.0898193,12.5433746 12.0819493,12.5514381 C12.067435,12.5662104 12.0502759,12.5810472 12.0331168,12.596013 C12.0238277,12.6027219 12.014603,12.6107854 12.0053139,12.6174942 C11.977511,12.6391689 11.9469987,12.6594889 11.9167445,12.6784542 C11.904746,12.685163 11.8941667,12.6918718 11.8821682,12.6987742 C11.8624933,12.7096115 11.8426249,12.7202553 11.8227564,12.729738 C11.8042426,12.7378015 11.7856644,12.7460585 11.7685052,12.7527673 C11.7023201,12.7742485 11.6414891,12.7811508 11.5992364,12.7636047 C11.5938178,12.76225 11.5900118,12.7608953 11.5859478,12.7581215 C11.5807226,12.7555412 11.575304,12.7527673 11.5714335,12.7514127 C11.5529197,12.7405753 11.5330513,12.7271577 11.5158922,12.7107727 C11.506603,12.7027092 11.4973139,12.6945812 11.4880893,12.685163 C11.3730716,12.5704034 11.2777289,12.3702353 11.2883082,12.2365103 C11.3226909,11.8188859 11.4205494,11.3917144 11.5714335,11.0024735 C11.7341225,10.5822688 11.9628677,10.1888349 12.1718734,9.78759556 C12.2023856,9.73076407 12.2315432,9.67257791 12.2604428,9.61581093 L12.2592816,9.61581093 C12.1996763,9.64025943 12.1454251,9.66728826 12.0925286,9.69844559 C12.0410513,9.72799023 11.9920252,9.76056673 11.9457085,9.79565905 C11.8518495,9.86584369 11.7685052,9.94434984 11.6905152,10.026791 C11.6665827,10.051046 11.6455531,10.0740753 11.62433,10.0983303 C10.6533566,11.2039963 10.4126775,12.555373 10.4628646,13.9704836 C10.5132453,15.3786274 10.661291,16.781675 10.7261215,18.188464 C10.7431516,18.5807368 10.7088334,18.9738481 10.6745152,19.3670885 C10.6687095,19.4332737 10.6629682,19.4994588 10.6574206,19.5656439 C10.6520019,19.6372478 10.5991054,19.7048521 10.5369842,19.7644574 C10.498602,19.7995497 10.4562848,19.8292879 10.4179026,19.854962 C10.3426218,19.903472 10.2459244,19.891409 10.1838033,19.8265785 C10.0622058,19.7007236 9.89158235,19.4656566 9.81204407,19.1034446 C9.37571239,17.6087312 9.002663,16.0950525 8.55813881,14.6042741 C7.83732714,12.181098 8.34661729,10.0334353 9.84778146,8.07929641 C10.6652905,7.01833439 11.0833665,5.79378024 11.2182526,4.46665848 C11.2447653,4.20865254 11.2353472,3.94722123 11.2249614,3.65814827 C11.2207684,3.54289839 11.2164463,3.42325553 11.2141886,3.29768438 L11.2141886,3.29630391 C11.026406,3.35980552 10.8413327,3.42882256 10.6560659,3.50040057 C10.6533566,3.50178104 10.6520019,3.50296798 10.6494861,3.50434845 L10.4707991,3.57730693 L10.469638,3.57730693 C8.90615913,4.22332165 7.4972413,5.1816838 6.31879098,6.37491288 C5.70099848,7.00078823 5.14690112,7.68999101 4.66536873,8.43344497 C4.58063755,8.56439608 4.49861571,8.69689538 4.41794209,8.83074935 C4.29770575,9.03207862 4.18248167,9.23740738 4.07266982,9.44699366 L4.07266982,9.44841283 C3.99990486,9.58620178 3.92849458,9.72547442 3.86114184,9.86861753 C3.75923866,10.0807841 3.66273479,10.2971437 3.57144961,10.5173738 C3.48015798,10.7362493 3.39543325,10.9593177 3.31610784,11.1850955 C3.28967249,11.2594086 3.2645789,11.3349474 3.23949177,11.4106797 C3.2076442,11.5053129 3.1771513,11.6013652 3.14820014,11.697224 C3.08991722,11.8877159 3.0356854,12.0811107 2.98685289,12.2769568 C2.96157223,12.3743638 2.93783331,12.4715772 2.91524908,12.5704034 C2.84249058,12.8850731 2.7816983,13.2055485 2.73286579,13.5285398 C2.63482663,14.1745867 2.58329124,14.8381154 2.58329124,15.5125458 C2.58329124,18.289806 3.44966507,20.8632211 4.91935582,22.9674699 L4.78695329,23.0309457 L4.76591725,23.0417831 L4.78695329,23.0323649 L4.91935582,22.9688246 C4.94714584,23.0092711 4.97493586,23.0484919 5.00388702,23.0877772 C5.10579021,23.2295657 5.20904806,23.3687738 5.31615704,23.5066273 L5.31615704,23.5079819 C5.39548245,23.4865008 5.47615607,23.4553435 5.56474482,23.4052208 C5.79717981,23.2751083 6.0254992,23.1428025 6.25158016,23.0118514 C7.72508333,22.1582824 9.10355341,21.3597387 10.908679,21.5577135 C11.0687232,21.5752597 11.2288964,21.5983535 11.3875214,21.6253823 C11.5449853,21.6537658 11.7023201,21.6860843 11.859784,21.7213701 C11.9642223,21.7456251 12.067435,21.7712993 12.1718734,21.7996828 C12.2751506,21.8280663 12.3781697,21.8564498 12.481447,21.8876071 C12.5847242,21.9185709 12.6877433,21.9497282 12.7896659,21.9834659 C12.8531417,22.0037859 12.9180367,22.0254605 12.9815125,22.0469417 C13.1720044,22.1131913 13.3624963,22.1822148 13.5516336,22.2538186 C13.8359201,22.3618694 14.1190454,22.4754679 14.4008161,22.590421 C14.5885987,22.6673145 14.7750266,22.744466 14.9628092,22.821553 C15.0554426,22.8592256 15.1494952,22.8984464 15.2421286,22.9363126 C15.4285565,23.0133996 15.6149844,23.0877772 15.8016059,23.1607357 C15.8226355,23.1687992 15.8465679,23.1796365 15.8689522,23.1916995 C15.887466,23.2011177 15.9073989,23.2133742 15.9259127,23.2255662 C15.9656496,23.2498212 16.0065476,23.2809785 16.0436397,23.3119423 C16.054219,23.321425 16.0648628,23.3322623 16.0752486,23.341745 C16.0858924,23.3512276 16.0951815,23.362065 16.1044061,23.3715476 C16.1349184,23.4012858 16.1586573,23.4310885 16.1771711,23.4606331 C16.1905242,23.4809531 16.20091,23.5012731 16.2076834,23.5201739 C16.2156178,23.5404939 16.2194238,23.5606204 16.2182627,23.5795857 C16.2182627,23.6040342 16.2129085,23.6296439 16.204974,23.6566727 C16.1997489,23.6727997 16.19304,23.691765 16.1851056,23.7093112 C16.171946,23.73634 16.1573027,23.7647235 16.1387889,23.7917523 C16.1362731,23.7972355 16.1322091,23.801235 16.1294997,23.8067182 C16.1202751,23.8214905 16.1084701,23.8365208 16.0978908,23.8499385 C16.0938268,23.854067 16.091311,23.8593567 16.087247,23.8635497 C16.0779579,23.8755481 16.0687333,23.8863855 16.0580894,23.898642 C16.0488648,23.9080601 16.0409303,23.9175428 16.0316412,23.9256063 C16.0144821,23.9431525 15.9946136,23.959344 15.9760999,23.975729 C15.9575216,23.9905013 15.9378467,24.0039189 15.9193329,24.0161754 C15.8901753,24.0337216 15.8623724,24.0459136 15.834634,24.0540416 C15.4377811,24.1595121 15.0104806,24.208022 14.6017583,24.1932497 C14.3490807,24.1824124 14.0978223,24.1486747 13.8464994,24.1108086 C13.5938863,24.0701686 13.3426279,24.0255936 13.091305,23.9905013 L13.091305,23.9919205 C13.1085286,24.012176 13.1270424,24.0311413 13.1467173,24.0498486 C13.1652311,24.0688139 13.1837448,24.0877147 13.2036778,24.1052609 C13.2274167,24.1283547 13.2513492,24.1500294 13.2763782,24.1689947 C13.2908925,24.1824124 13.3055358,24.1946044 13.3214048,24.2054417 C13.3650121,24.2391794 13.4099742,24.268982 13.4562909,24.2945917 C13.5502789,24.3541325 13.6494921,24.4012878 13.75006,24.4432825 C15.0925347,25.0108233 16.4205595,24.7933025 17.7103957,24.272917 C18.8318662,23.8201358 19.9257917,23.29717 21.0382311,22.8174245 C21.1971141,22.7497556 21.3557392,22.6823449 21.5157188,22.6160952 C21.5674542,22.594356 21.6203507,22.574036 21.6718926,22.5537805 C21.7247246,22.5350087 21.7776211,22.5161079 21.8307111,22.4971426 C21.8849623,22.4795964 21.9377943,22.4618567 21.9920454,22.4456652 C22.0991931,22.4133468 22.207631,22.3821894 22.3160688,22.3523868 C22.480177,22.3078763 22.6442207,22.2660751 22.8080708,22.2226613 C22.8147796,22.2213066 22.8227141,22.2187263 22.8306486,22.2173071 C22.8398732,22.2173071 22.850517,22.2159525 22.8598062,22.2159525 C22.8835451,22.2173071 22.9061229,22.2213066 22.9298618,22.228209 C23.0091421,22.252464 23.0925508,22.3064571 23.154672,22.3565798 C23.1600906,22.3605148 23.1653158,22.3646433 23.1704764,22.3699974 C23.1772497,22.3754806 23.1811202,22.3808348 23.1851842,22.3863179 C23.203698,22.4092183 23.2155029,22.4348279 23.2208571,22.4618567 C23.2235664,22.4768226 23.2260822,22.4916594 23.2260822,22.5077864 L23.2260822,22.5105602 C23.2260822,22.5308802 23.2235664,22.5512002 23.2155029,22.570101 C23.2143418,22.5768099 23.2102778,22.5835187 23.2075685,22.590421 C23.1600906,22.6904083 23.0791977,22.8227141 22.9510849,22.9552134 C22.9246367,22.9822423 22.8968337,23.0079164 22.8676762,23.0348807 C22.8080708,23.0877772 22.7407245,23.1389965 22.6638956,23.1891192 C22.2010511,23.5335916 21.732659,23.870194 21.2631058,24.2054417 C20.9510164,24.4283166 20.6375723,24.6513206 20.3252894,24.8743245 C19.8557361,25.2095723 19.3902469,25.5473358 18.9299182,25.8948401 C17.3517961,27.0827537 15.6759444,27.4719946 13.9048146,27.1895788 C13.8001827,27.1718391 13.6971635,27.1529383 13.5925316,27.1328118 L13.591177,27.1328118 C13.4868031,27.1111372 13.3810101,27.0880433 13.2763782,27.0624337 C13.2235462,27.049016 13.1706497,27.0354049 13.1177532,27.0219872 C12.9046835,26.9652202 12.6918073,26.9003252 12.477383,26.8259476 C12.3332077,26.7758894 12.1903871,26.7327336 12.0462119,26.6948675 C11.9802203,26.6773213 11.9126805,26.6597106 11.8464953,26.6447448 C11.802888,26.634101 11.7605708,26.6246183 11.7181246,26.6165548 C11.6336192,26.5988152 11.5502104,26.5826237 11.4655115,26.569206 C11.0621434,26.5029564 10.6574206,26.4785079 10.2513431,26.4893452 C10.1865126,26.492119 10.1229723,26.4948929 10.0581418,26.4988279 C9.99331137,26.5029564 9.92983556,26.5068913 9.8651341,26.512439 C9.80030362,26.5177287 9.73547315,26.5244375 9.6692235,26.5313399 C9.60439302,26.5394679 9.53975607,26.5475313 9.47628026,26.557014 C9.28172433,26.5853975 9.08736192,26.6191352 8.89416065,26.6624845 L8.89280598,26.6624845 C8.89280598,26.6624845 8.89416065,26.6624845 8.89416065,26.6637101 C9.18251112,26.8354303 9.47879607,26.9949584 9.78178985,27.1422945 C9.9033873,27.2016418 10.0251138,27.2584088 10.1494206,27.3138211 C10.2393446,27.3544611 10.3293332,27.3934884 10.4192573,27.4313546 L10.498602,27.4639311 C10.6652905,27.5326965 10.8332047,27.5975915 11.002667,27.6585515 C11.026406,27.6679697 11.0501449,27.6760977 11.0740773,27.6841612 C11.1586472,27.7153185 11.2447008,27.7449277 11.3319155,27.771892 C11.4311287,27.8044685 11.5303419,27.8356258 11.6295552,27.8651704 C11.6363285,27.8679443 11.6441985,27.8693635 11.6507783,27.8720728 C11.7486368,27.9016819 11.8464953,27.9300654 11.9443539,27.9559331 C12.0475666,27.9841231 12.1508438,28.0112809 12.2552176,28.0355359 C12.3584948,28.0625647 12.4629332,28.0868197 12.5686617,28.1085589 C12.738124,28.146425 12.9101022,28.1800982 13.0820803,28.2099009 C13.1507813,28.2220929 13.2194822,28.2329302 13.2883767,28.2436385 C13.5633741,28.2869878 13.8413387,28.3207255 14.1204001,28.3437548 C14.4708717,28.3747186 14.8254073,28.389749 15.1838134,28.389749 C15.7076178,28.389749 16.2248425,28.3571725 16.7328425,28.292342 C16.8056074,28.2828593 16.8770177,28.2733767 16.9497826,28.2625393 C17.1811726,28.2302209 17.4100468,28.1895809 17.6362761,28.1436512 C17.7354893,28.1233312 17.834638,28.1018501 17.9324965,28.0801109 C18.1295683,28.0355359 18.3241242,27.9854777 18.517132,27.9314201 C18.6138294,27.9044558 18.7102687,27.8760078 18.8054179,27.8462696 C18.9959099,27.788277 19.1850471,27.7248012 19.3730878,27.6571323 C19.5595157,27.589528 19.744589,27.5165696 19.9285011,27.4408372 C20.1375068,27.3531064 20.3438677,27.259828 20.5476482,27.162421 C20.6149945,27.1286833 20.6825343,27.0963004 20.7498806,27.0624337 C20.8848312,26.9949584 21.0172015,26.9245802 21.1494428,26.8516218 C21.2142733,26.8151103 21.2804584,26.7772441 21.3450954,26.7407971 C21.6056429,26.5921063 21.8596752,26.4325782 22.1084178,26.2651801 C22.2539477,26.166354 22.3994776,26.0635928 22.5409435,25.9583159 C22.6627344,25.8678112 22.7829772,25.7758874 22.9020589,25.6812543 C23.0197859,25.5879758 23.1375129,25.4919235 23.2525305,25.3933554 C23.3320688,25.3256865 23.411349,25.2569211 23.4879845,25.1853173 C23.5514603,25.129905 23.6136459,25.0717188 23.6757671,25.0135326 C23.7381462,24.9567657 23.7989127,24.8974184 23.8596792,24.8392322 C23.9575377,24.7431799 24.0542351,24.6473856 24.1493843,24.5485594 L24.1493843,24.5473983 C24.3875476,24.2998813 24.6162928,24.0431398 24.8345231,23.77698 C24.9020629,23.6945389 24.9694737,23.6120977 25.0343042,23.5268828 C25.0726864,23.4795984 25.1097785,23.4310885 25.1454514,23.382385 C25.2127977,23.29717 25.2751768,23.2120195 25.337298,23.1256434 L25.337298,23.1242242 C25.378196,23.0674572 25.4179974,23.0106257 25.4575408,22.9538588 C25.6943494,22.614676 25.9153536,22.264656 26.1189406,21.9010247 L26.1295844,21.8821239 L26.1282298,21.8821239 L25.8213655,21.7509793 C25.7842735,21.7320139 25.7472459,21.7144678 25.7101538,21.6969216 C25.5686879,21.626737 25.427222,21.5577135 25.2869173,21.4875289 C25.2062823,21.448308 25.1255829,21.4078616 25.0448835,21.3658669 C24.862326,21.2739431 24.6811232,21.17931 24.5052746,21.0820965 C24.4535392,21.053713 24.4020619,21.0239103 24.3518747,20.9955268 C24.2896891,20.9590154 24.2273744,20.923923 24.1678981,20.8860569 C24.0872632,20.8373534 24.0079184,20.7874888 23.9297348,20.7360114 C23.9073506,20.7240129 23.8861274,20.7089826 23.866259,20.6942103 C23.7989127,20.65099 23.7340822,20.6050603 23.6678326,20.557776 C23.589907,20.5023637 23.5144327,20.4441775 23.439152,20.383411 C23.4021244,20.3550276 23.366387,20.3252249 23.3307141,20.2954867 C23.2579492,20.2347203 23.1865389,20.1710509 23.1162897,20.1036401 C23.0990661,20.0874486 23.081907,20.0710636 23.0647479,20.0535175 C23.0462341,20.037326 23.0303652,20.0197798 23.0132061,20.0022337 C22.9788878,19.9683025 22.9443116,19.9332102 22.9126382,19.8981178 L22.8888993,19.8738629 C22.8715466,19.8563167 22.8543875,19.8374159 22.8385186,19.8184505 C22.8306486,19.8103871 22.8240688,19.80213 22.8161343,19.794002 L22.8161343,19.7926474 C22.8147796,19.7926474 22.8147796,19.7914217 22.8134895,19.7914217 L22.8134895,19.7900671 C22.7816226,19.7549747 22.7499492,19.7171086 22.7194369,19.6792424 C22.6559611,19.6035101 22.5951946,19.5250685 22.5368795,19.4426273 C22.4919174,19.3818608 22.4483101,19.318385 22.407412,19.25349 C22.3650948,19.1885951 22.3253579,19.1223454 22.2856211,19.0535154 C22.2578181,19.0075858 22.2327245,18.9616561 22.207631,18.9143073 C21.9536632,18.4357229 21.7604619,17.9303033 21.6004823,17.4113369 C21.5805493,17.3477966 21.5620355,17.2829661 21.5435218,17.2194258 C21.2856835,16.3288938 21.1164147,15.4058497 20.9019903,14.5151241 C20.8730263,14.3934622 20.8796061,14.2069052 20.9259228,14.0907264 C20.9311479,14.0759541 20.9365666,14.0637621 20.9444366,14.0515056 L20.9444366,14.0501509 C20.9510164,14.0392491 20.9575962,14.0286053 20.9654661,14.0205418 C20.9695301,14.0164133 20.9722395,14.0122848 20.9774646,14.0083498 C20.9815286,14.0041568 20.9853991,14.001641 20.9907533,13.9988671 C21.0965463,13.9286825 21.3320002,13.9393263 21.4655317,14.0122848 C21.48411,14.0217029 21.5012691,14.0339594 21.5157188,14.0461514 C21.5502951,14.0759541 21.5832586,14.1055633 21.6162867,14.1367206 C21.6454443,14.1636849 21.6746019,14.1921329 21.7023403,14.2218711 C21.7314979,14.2502546 21.7593008,14.2798637 21.7869102,14.3082472 C21.9523085,14.4867406 22.1018379,14.6799419 22.2288541,14.8826904 C22.4654692,15.2652224 22.6362862,15.6896201 22.8372284,16.0950525 C22.8968337,15.8422459 22.8756106,15.611114 22.8279393,15.3855297 C22.7935565,15.2218731 22.7499492,15.0664735 22.6970527,14.9152024 C22.6638956,14.8138604 22.6243522,14.7164534 22.5818415,14.6205946 L22.5818415,14.6192399 C22.4788223,14.3812057 22.3518062,14.1595564 22.207631,13.9529375 C22.0634557,13.7446414 21.9007667,13.5500209 21.7222733,13.3690116 C21.6865359,13.3325647 21.650863,13.2960532 21.6137709,13.2609608 C21.5342326,13.1838739 21.4510819,13.1081415 21.366383,13.0351831 C21.2804584,12.9622246 21.1930501,12.8919755 21.1044807,12.8215973 C20.9853991,12.729738 20.862447,12.640588 20.7354308,12.5540184 C20.6097694,12.4689969 20.4841724,12.3838464 20.3571563,12.3000506 C20.1045432,12.1323945 19.8478662,11.9689314 19.5924792,11.8066294 C19.464173,11.7256075 19.334641,11.644521 19.2063347,11.563499 C18.9495932,11.4011971 18.6917549,11.2405078 18.4364325,11.0768512 C18.3080617,10.9957647 18.179949,10.9133235 18.0529329,10.8309469 C17.9246266,10.7470866 17.7976104,10.6632908 17.671949,10.579495 C17.5635111,10.5065365 17.4602339,10.4294495 17.3583114,10.348363 C17.3253478,10.3213987 17.2909651,10.2929507 17.2580016,10.2659864 C17.1242121,10.1537426 16.99339,10.038983 16.8636645,9.92261067 C16.8252823,9.89029219 16.7883838,9.85636102 16.7513562,9.82404254 L16.7513562,9.82268788 C16.7314878,9.80649638 16.7181346,9.78482172 16.7063942,9.76056673 C16.7036849,9.75385791 16.7009755,9.74553639 16.6982662,9.73882756 C16.6943957,9.72682908 16.6903962,9.71457258 16.6878804,9.70238058 C16.6811071,9.67948026 16.6772366,9.65503175 16.6758819,9.63219594 C16.6706568,9.58762096 16.6706568,9.54169131 16.6731726,9.50105131 C16.6731726,9.49569715 16.6745273,9.49021398 16.6745273,9.48627899 C16.6758819,9.47679633 16.6785913,9.46731366 16.6811071,9.45783099 C16.6851711,9.44421982 16.6903962,9.43202782 16.6982662,9.41996483 C16.7036849,9.41190134 16.7075553,9.40635366 16.7156188,9.39970934 C16.7274238,9.38609817 16.7432282,9.37403518 16.7592907,9.36455252 C16.7750952,9.35648902 16.7936089,9.34958668 16.8134774,9.34700636 C16.9628778,9.32397703 17.2142007,9.32004204 17.505196,9.4497675 C18.7672292,9.89977486 20.0105552,10.4079684 21.2736851,10.8498477 C21.4417927,10.909195 21.6044818,10.9729289 21.7618166,11.0416943 C21.7631713,11.0416943 21.7631713,11.0431135 21.7631713,11.0431135 C21.9206352,11.1119435 22.0727449,11.1850955 22.2182748,11.2647628 L22.2196294,11.2647628 C22.3160688,11.3174013 22.411218,11.3714589 22.5052706,11.4295806 C22.5992586,11.4877667 22.6891827,11.5459529 22.7777521,11.6066548 C22.8649668,11.668776 22.9510849,11.7323163 23.0355903,11.7971468 C23.2023433,11.9282914 23.3609683,12.0689187 23.5105622,12.2161903 C24.2804645,12.9783516 24.8134935,13.9582271 25.142742,15.1340778 C25.2618237,15.5612493 25.4258674,15.9585537 25.6281642,16.3288938 C25.8319448,16.700395 26.0739786,17.04648 26.3505241,17.3681166 C26.3966473,17.4221743 26.4443187,17.4748127 26.49199,17.5276447 C26.5396614,17.5802832 26.5884939,17.631567 26.6388746,17.6830443 L26.6388746,17.684399 C26.7380878,17.7871602 26.8411715,17.8871475 26.9482546,17.9843609 C27.101719,18.1263429 27.276342,18.2466502 27.4668339,18.3763756 L27.4668339,18.3763756 Z M2.81604878,11.1080085 C2.75795938,11.2985004 2.70507578,11.4917017 2.65470153,11.6877413 C2.70372756,11.4917017 2.75795938,11.2985004 2.81604878,11.1080085 Z M5.09787508,23.6324177 L5.1191111,23.6229351 L5.32793619,23.5215931 L5.1191111,23.6215804 L5.09787508,23.6324177 Z" id="path8802"></path>
                            <path d="M16.060095,15.1661214 C14.858854,12.1779396 11.4444392,12.8751182 11.4219859,16.3433718 C11.4096176,18.248246 13.0477485,18.9602395 14.1386358,19.7217428 C15.1964111,20.4603199 15.9491671,21.4705787 16.0671392,21.9007176 C16.168178,21.4792873 17.0067489,20.4404515 17.9857278,19.7010486 C19.0564305,18.8928738 20.7149295,18.2275519 20.7026085,16.3226777 C20.6799662,12.8456974 17.2059752,12.2970406 16.060095,15.1661214" id="path8804" fill-rule="nonzero"></path>
                            <polygon id="path8806" fill-rule="nonzero" points="39.5389903 14.2716027 39.5713539 14.2716027 44.6717577 9.30547865 46.8828962 9.30547865 41.3306143 14.4628881 47.2218854 20.5749505 44.9298539 20.5749505 39.5713539 14.7491227 39.5389903 14.7491227 39.5389903 20.5749505 37.9411287 20.5749505 37.9411287 9.30547865 39.5389903 9.30547865"></polygon>
                            <path d="M49.210665,20.5749505 L50.9790469,20.5749505 L52.1205019,17.8053668 L57.5221255,17.8053668 L58.6797204,20.5749505 L60.4801369,20.5749505 L55.5930028,9.30547865 L54.1461414,9.30547865 L49.210665,20.5749505 Z M56.9435538,16.4206395 L52.6831659,16.4206395 L54.8214234,11.1359816 L56.9435538,16.4206395 Z" id="path8808"></path>
                            <polygon id="path8810" fill-rule="nonzero" points="64.712838 19.1740962 69.7605711 19.1740962 69.7605711 20.5749505 63.1314776 20.5749505 63.1314776 9.30547865 64.712838 9.30547865"></polygon>
                            <polygon id="path8812" fill-rule="nonzero" points="72.4077187 20.5749505 73.7335374 20.5749505 73.7335374 9.30547865 72.4077187 9.30547865"></polygon>
                            <polygon id="path8814" fill-rule="nonzero" points="86.0933353 18.314786 86.1239121 18.314786 86.1239121 9.30547865 87.6554595 9.30547865 87.6554595 20.5749505 85.7220921 20.5749505 79.9368398 11.3747449 79.906018 11.3747449 79.906018 20.5749505 78.3747028 20.5749505 78.3747028 9.30547865 80.3698752 9.30547865"></polygon>
                            <path d="M99.1097466,11.9358607 C98.7803046,11.5617082 98.361003,11.2623849 97.8511322,11.0376973 C97.3417131,10.8132033 96.7730111,10.7010562 96.1450264,10.7010562 C95.506759,10.7010562 94.9302129,10.8213442 94.415775,11.0617137 C93.9009501,11.3022831 93.4635282,11.6311768 93.1031095,12.0482013 C92.7426972,12.4650322 92.4650357,12.9491449 92.2693444,13.4993589 C92.0738531,14.0503663 91.9760075,14.6357113 91.9760075,15.2555939 C91.9760075,15.8867718 92.0738531,16.4800513 92.2693444,17.0360452 C92.4650357,17.5920391 92.7426972,18.0757196 93.1031095,18.4872157 C93.4635282,18.8990343 93.9063043,19.2227997 94.4312505,19.4576086 C94.9562032,19.6928045 95.5430641,19.8103379 96.1914656,19.8103379 C96.706097,19.8103379 97.1796691,19.7622795 97.6118723,19.6662272 C98.04414,19.5699814 98.4200922,19.4310313 98.739213,19.2489899 L98.739213,16.0896492 L96.3149145,16.0896492 L96.3149145,14.7424978 L100.252311,14.7424978 L100.252311,20.2434442 C99.6758037,20.5643712 99.047819,20.81034 98.3684859,20.9812215 C97.6890883,21.152103 96.9480211,21.2378341 96.1450264,21.2378341 C95.2906252,21.2378341 94.5057765,21.090756 93.7903061,20.7965998 C93.0746357,20.5026371 92.4598751,20.091012 91.9452437,19.5617889 C91.4304252,19.0326303 91.0289213,18.4018717 90.7409373,17.6691905 C90.4525687,16.937219 90.3086709,16.1327405 90.3086709,15.2555939 C90.3086709,14.3683453 90.4550529,13.5585062 90.7483899,12.8258831 C91.0417262,12.0938535 91.4483842,11.4682169 91.9683633,10.9495666 C92.4881553,10.4311099 93.1031095,10.027387 93.8134257,9.73858235 C94.523742,9.44997901 95.2959729,9.30547865 96.129738,9.30547865 C97.0044011,9.30547865 97.784302,9.43945905 98.4689893,9.70662512 C99.153483,9.97379377 99.7219914,10.3320644 100.175289,10.7810461 L99.1097466,11.9358607 Z" id="path8816" fill-rule="nonzero"></path>
                            <path d="M102.90062,20.5749505 L104.669202,20.5749505 L105.810457,17.8053668 L111.21208,17.8053668 L112.369675,20.5749505 L114.170092,20.5749505 L109.282958,9.30547865 L107.836096,9.30547865 L102.90062,20.5749505 Z M110.633315,16.4206395 L106.373121,16.4206395 L108.511178,11.1359816 L110.633315,16.4206395 Z" id="path8818"></path>
                        </g>
                    </g>
                </g>
            </g>
        </g>
    </g>
</svg>