<?xml version="1.0" encoding="UTF-8"?>
<svg width="126px" height="32px" viewBox="0 0 126 32" version="1.1" xmlns="http://www.w3.org/2000/svg" xmlns:xlink="http://www.w3.org/1999/xlink">
    <!-- Generator: Sketch 53.2 (72643) - https://sketchapp.com -->
    <title>at-logo</title>
    <desc>Created with Sketch.</desc>
    <defs>
        <linearGradient x1="14.5681818%" y1="14.6136364%" x2="85.3522727%" y2="85.3863636%" id="linearGradient-1">
            <stop stop-color="#FF9C00" offset="0%"></stop>
            <stop stop-color="#FA6500" offset="100%"></stop>
        </linearGradient>
        <linearGradient x1="23.8997472%" y1="16.0737049%" x2="86.9209509%" y2="88.2257504%" id="linearGradient-2">
            <stop stop-color="#E67F00" offset="0%"></stop>
            <stop stop-color="#D04E00" offset="100%"></stop>
        </linearGradient>
        <radialGradient cx="13.4171908%" cy="15.9329172%" fx="13.4171908%" fy="15.9329172%" r="99.6942701%" id="radialGradient-3">
            <stop stop-color="#FFFFFF" offset="0%"></stop>
            <stop stop-color="#FBFBFB" offset="35%"></stop>
            <stop stop-color="#F0F0F0" offset="67%"></stop>
            <stop stop-color="#DDDDDD" offset="98%"></stop>
            <stop stop-color="#DCDCDC" offset="100%"></stop>
        </radialGradient>
        <linearGradient x1="14.6494653%" y1="14.6494653%" x2="85.3590222%" y2="85.3505347%" id="linearGradient-4">
            <stop stop-color="#DCDCDC" offset="0%"></stop>
            <stop stop-color="#D8D8D8" offset="20%"></stop>
            <stop stop-color="#CDCDCD" offset="39%"></stop>
            <stop stop-color="#BABABA" offset="57%"></stop>
            <stop stop-color="#A0A0A0" offset="75%"></stop>
            <stop stop-color="#7E7E7E" offset="93%"></stop>
            <stop stop-color="#6E6E6E" offset="100%"></stop>
        </linearGradient>
    </defs>
    <g id="Page-1" stroke="none" stroke-width="1" fill="none" fill-rule="evenodd">
        <g id="1.-home" transform="translate(-151.000000, -1707.000000)" fill-rule="nonzero">
            <g id="recent-projects" transform="translate(-453.000000, 1103.000000)">
                <g id="cards" transform="translate(588.000000, 425.000000)">
                    <g id="autotrader">
                        <g id="at-logo" transform="translate(16.000000, 179.000000)">
                            <path d="M6.624,9.64533333 L11.3893333,23.6106667 L8.86133333,23.6106667 L7.96533333,20.744 L3.29066667,20.744 L2.37066667,23.6106667 L4.4408921e-15,23.6106667 L4.744,9.64533333 L6.624,9.64533333 Z M5.63733333,13.4186667 L3.984,18.5893333 L7.272,18.5893333 L5.672,13.4186667 L5.63733333,13.4186667 Z M14.56,12.712 L14.56,19.448 C14.56,20.344 14.648,20.8133333 14.9173333,21.1493333 C15.1866667,21.4853333 15.6986667,21.664 16.3706667,21.664 C17.0426667,21.664 17.536,21.5066667 17.8266667,21.1493333 C18.1173333,20.792 18.184,20.3493333 18.184,19.448 L18.184,12.712 L20.4666667,12.712 L20.4666667,19.784 C20.4666667,22.4026667 18.9893333,23.744 16.3706667,23.744 C13.752,23.744 12.2746667,22.4106667 12.2746667,19.784 L12.2746667,12.712 L14.56,12.712 Z M25.8106667,10.1386667 L25.8106667,12.712 L28.1173333,12.712 L28.1173333,14.5013333 L25.8106667,14.5013333 L25.8106667,19.6053333 C25.8106667,20.456 25.9013333,20.9013333 26.192,21.2373333 C26.44,21.552 26.8853333,21.6853333 27.5573333,21.6853333 C27.7291802,21.6909072 27.901204,21.6837767 28.072,21.664 L28.072,23.6986667 C27.7829484,23.7363641 27.4914024,23.7515209 27.2,23.744 C25.9013333,23.744 24.984,23.3866667 24.424,22.736 C23.776,22.0213333 23.528,21.136 23.528,19.6053333 L23.528,14.5013333 L21.8506667,14.5013333 L21.8506667,12.712 L23.528,12.712 L23.528,10.1386667 L25.8106667,10.1386667 Z M29.4613333,16.56 C29.4613333,13.92 30.9386667,12.5786667 33.5573333,12.5786667 C36.176,12.5786667 37.6506667,13.912 37.6506667,16.56 L37.6506667,19.784 C37.6506667,22.4026667 36.176,23.744 33.5573333,23.744 C30.9386667,23.744 29.4613333,22.4106667 29.4613333,19.784 L29.4613333,16.56 Z M31.744,19.448 C31.744,20.344 31.8346667,20.8133333 32.1013333,21.1493333 C32.368,21.4853333 32.8853333,21.664 33.5573333,21.664 C34.2293333,21.664 34.72,21.5066667 35.0106667,21.1493333 C35.3013333,20.792 35.3706667,20.3493333 35.3706667,19.448 L35.3706667,16.8853333 C35.3706667,16.0133333 35.28,15.52 35.0106667,15.184 C34.7413333,14.848 34.2266667,14.6693333 33.5573333,14.6693333 C32.888,14.6693333 32.392,14.8266667 32.1013333,15.184 C31.8106667,15.5413333 31.744,16.0133333 31.744,16.8853333 L31.744,19.448 Z M42.7306667,10.1386667 L42.7306667,12.712 L45.0373333,12.712 L45.0373333,14.5013333 L42.7306667,14.5013333 L42.7306667,19.6053333 C42.7306667,20.456 42.8213333,20.9013333 43.112,21.2373333 C43.3573333,21.552 43.8053333,21.6853333 44.4773333,21.6853333 C44.6491802,21.6909072 44.821204,21.6837767 44.992,21.664 L44.992,23.6986667 C44.7029416,23.7362892 44.4114014,23.7514457 44.12,23.744 C42.8213333,23.744 41.904,23.3866667 41.344,22.736 C40.696,22.0213333 40.448,21.136 40.448,19.6053333 L40.448,14.5013333 L38.7706667,14.5013333 L38.7706667,12.712 L40.448,12.712 L40.448,10.1386667 L42.7306667,10.1386667 Z M49.1306667,12.712 L49.176,13.9653333 C49.7089405,13.0710608 50.6877146,12.5392295 51.728,12.5786667 C51.9952396,12.5785057 52.2622936,12.5927486 52.528,12.6213333 L52.528,14.792 C52.3348197,14.7733226 52.1406963,14.7661988 51.9466667,14.7706667 C51.032,14.7706667 50.3146667,14.9733333 49.8666667,15.4186667 C49.464,15.8453333 49.2853333,16.4053333 49.2853333,17.344 L49.2853333,23.6106667 L47.0026667,23.6106667 L47.0026667,12.712 L49.1306667,12.712 Z M61.976,12.712 L61.976,23.6106667 L59.984,23.6106667 L59.9386667,22.4906667 C59.3373824,23.3155693 58.3639318,23.7857869 57.344,23.744 C56.3885756,23.7841647 55.4556735,23.4470173 54.7466667,22.8053333 C54.12,22.1786667 53.784,21.304 53.784,19.8293333 L53.784,16.4933333 C53.784,15.016 54.12,14.144 54.7466667,13.5173333 C55.454917,12.8743918 56.3883533,12.5370513 57.344,12.5786667 C58.44,12.5786667 59.3573333,12.9786667 59.8933333,13.72 L59.9626667,12.712 L61.976,12.712 Z M56.0666667,19.3786667 C56.0666667,20.3626667 56.1573333,20.7866667 56.4933333,21.168 C56.8326711,21.4977607 57.2958419,21.6683006 57.768,21.6373333 C58.2547953,21.6486446 58.7289561,21.4817399 59.1013333,21.168 C59.5466667,20.7413333 59.6826667,20.16 59.6826667,19.2426667 L59.6826667,17.0506667 C59.6826667,16.1546667 59.5466667,15.528 59.1013333,15.104 C58.7323068,14.786523 58.253858,14.6257642 57.768,14.656 C57.1653333,14.656 56.784,14.7893333 56.4933333,15.104 C56.1573333,15.4613333 56.0666667,15.9306667 56.0666667,16.9173333 L56.0666667,19.3786667 Z M72.36,8.66133333 L72.36,23.6106667 L70.368,23.6106667 L70.2773333,22.544 C69.808,23.2826667 68.912,23.7306667 67.7706667,23.7306667 C66.7413333,23.7306667 65.7573333,23.416 65.1306667,22.792 C64.504,22.168 64.16,21.304 64.16,19.8186667 L64.16,16.4933333 C64.16,15.016 64.496,14.144 65.1226667,13.5173333 C65.7493333,12.8906667 66.7546667,12.5786667 67.7893333,12.5786667 C68.6312619,12.5554588 69.4494285,12.8594039 70.072,13.4266667 L70.072,8.66133333 L72.36,8.66133333 Z M66.4506667,19.3813333 C66.4506667,20.3653333 66.5413333,20.7893333 66.8773333,21.1706667 C67.216304,21.5010098 67.6797436,21.6716487 68.152,21.64 C68.6388739,21.6518066 69.1132051,21.484842 69.4853333,21.1706667 C69.9333333,20.744 70.0666667,20.1626667 70.0666667,19.2453333 L70.0666667,17.0533333 C70.0666667,16.1573333 69.9333333,15.5306667 69.4853333,15.1066667 C69.1163068,14.7891896 68.637858,14.6284309 68.152,14.6586667 C67.5466667,14.6586667 67.168,14.792 66.8773333,15.1066667 C66.5413333,15.464 66.4506667,15.9333333 66.4506667,16.92 L66.4506667,19.3813333 Z M74.56,16.56 C74.56,13.92 75.9706667,12.5786667 78.5893333,12.5786667 C81.208,12.5786667 82.6186667,13.912 82.6186667,16.56 L82.6186667,18.3973333 C82.6381417,18.5667597 82.5774313,18.7355684 82.454509,18.853783 C82.3315867,18.9719976 82.1605372,19.026073 81.992,19 L76.8453333,19 L76.8453333,19.5146667 C76.8453333,20.8133333 77.024,21.7066667 78.5893333,21.7066667 C79.7973333,21.7066667 80.3146667,21.1253333 80.3146667,20.0533333 L82.56,20.0533333 L82.56,20.0853333 C82.56,22.4853333 81.0613333,23.7333333 78.576,23.7333333 C75.9573333,23.7333333 74.5466667,22.4 74.5466667,19.7733333 L74.56,16.56 Z M76.8453333,17.1866667 L80.336,17.1866667 L80.336,16.8293333 C80.336,15.496 80.136,14.6133333 78.5893333,14.6133333 C77.1573333,14.6133333 76.8453333,15.376 76.8453333,16.8293333 L76.8453333,17.1866667 Z M86.9253333,12.712 L86.9706667,13.9653333 C87.5040227,13.0714933 88.482518,12.5398134 89.5226667,12.5786667 C89.7899034,12.5786134 90.0569516,12.592856 90.3226667,12.6213333 L90.3226667,14.792 C90.129483,14.773373 89.9353627,14.7662493 89.7413333,14.7706667 C88.824,14.7706667 88.1066667,14.9733333 87.6586667,15.4186667 C87.256,15.8453333 87.0773333,16.4053333 87.0773333,17.344 L87.0773333,23.6106667 L84.8,23.6106667 L84.8,12.712 L86.9253333,12.712 Z" id="Combined-Shape" fill="#022269"></path>
                            <circle id="Oval" fill="#FFFFFF" transform="translate(110.226883, 15.974504) rotate(-1.640000) translate(-110.226883, -15.974504) " cx="110.226883" cy="15.9745042" r="15.4986667"></circle>
                            <path d="M121.968,15.976 C121.968,22.4561411 116.714808,27.7093333 110.234667,27.7093333 C103.754526,27.7093333 98.5013333,22.4561411 98.5013333,15.976 C98.5013333,9.49585894 103.754526,4.24266667 110.234667,4.24266667 C116.714808,4.24266667 121.968,9.49585894 121.968,15.976 Z" id="Path" fill="url(#linearGradient-1)"></path>
                            <path d="M99.3413333,15.424 L98.496,15.424 C98.71271,10.7425045 101.694428,6.63897338 106.08,4.98666667 L105.922667,5.856 C102.193734,7.65998133 99.6923457,11.2965219 99.3413333,15.424 Z M110.674667,6.35733333 L110.288,4.224 L110.162667,4.224 L108.138667,15.424 L109.034667,15.424 L110.674667,6.35733333 Z M103.474667,19.4426667 L103.557333,18.9946667 L98.8746667,18.9946667 C99.4767666,21.24947 100.737604,23.2734948 102.496,24.808 L102.546667,24.52 C101.184532,23.0975671 100.202358,21.3551479 99.6906667,19.4533333 L103.474667,19.4426667 Z M113.050667,19.4426667 L112.968,18.9946667 L107.493333,18.9946667 L106.053333,26.952 C106.32,27.056 106.613333,27.1493333 106.898667,27.2346667 L108.309333,19.4426667 L113.050667,19.4426667 Z M114.384,4.984 L117.968,24.808 C118.186667,24.6186667 118.392,24.4186667 118.594667,24.2133333 L115.181333,5.32 C114.906667,5.2 114.642667,5.088 114.370667,4.98666667 L114.384,4.984 Z" id="Shape" fill="url(#linearGradient-2)"></path>
                            <path d="M110.458667,0.800000933 C102.029287,0.802946209 95.1980371,7.63817543 95.2000004,16.0675552 C95.2019638,24.4969351 102.036397,31.3289813 110.465777,31.3279999 C118.895157,31.3270185 125.727999,24.493381 125.728,16.0640009 C125.728,12.0148122 124.119101,8.13154561 121.255392,5.26883697 C118.391684,2.40612833 114.507855,0.798586122 110.458667,0.800000933 Z M110.397333,4.32000093 L110.528,4.32000093 L112.552,15.5200009 L108.373333,15.5200009 L110.397333,4.32000093 Z M102.730667,24.8986676 C100.972271,23.3641624 99.7114332,21.3401376 99.1093333,19.0853343 L103.781333,19.0853343 L102.730667,24.8986676 Z M98.7306667,15.5120009 C98.9473767,10.8305055 101.929094,6.72697431 106.314667,5.0746676 L104.426667,15.5120009 L98.7306667,15.5120009 Z M110.464,27.8053343 C109.039043,27.8060077 107.625837,27.5475826 106.293333,27.0426676 L107.733333,19.0853343 L113.194667,19.0853343 L114.634667,27.0426676 C113.300328,27.5476455 111.885363,27.8060618 110.458667,27.8053343 L110.464,27.8053343 Z M118.197333,24.8986676 L114.613333,5.0746676 C118.478535,6.52805431 121.295185,9.90626244 122.029837,13.9698082 C122.764489,18.0333539 121.308976,22.1839305 118.197333,24.8986676 L118.197333,24.8986676 Z" id="Shape" fill="url(#radialGradient-3)"></path>
                            <path d="M110.224,0.266666667 C101.547975,0.266666667 94.5146667,7.29997477 94.5146667,15.976 C94.5146667,24.6520252 101.547975,31.6853333 110.224,31.6853333 C118.900025,31.6853333 125.933333,24.6520252 125.933333,15.976 C125.933333,7.29997477 118.900025,0.266666667 110.224,0.266666667 L110.224,0.266666667 Z M110.224,31.24 C101.79462,31.2370547 94.9633704,24.4018255 94.9653337,15.9724457 C94.9672971,7.54306587 101.801731,0.71101962 110.23111,0.712001035 C118.66049,0.712982451 125.493333,7.54661996 125.493333,15.976 C125.493334,20.0251887 123.884435,23.9084553 121.020726,26.771164 C118.157017,29.6338726 114.273188,31.2414148 110.224,31.24 L110.224,31.24 Z" id="Shape" fill="url(#linearGradient-4)"></path>
                            <path d="M98.8746667,18.9973333 L98.6586667,18.9973333 C99.2765196,21.3550306 100.599496,23.4678853 102.450667,25.0533333 L102.493333,24.816 C100.735649,23.2791741 99.4758167,21.2534151 98.8746667,18.9973333 Z" id="Path" fill="#FFFFFF"></path>
                            <path d="M110.224,27.72 C108.798924,27.7219842 107.385483,27.4635161 106.053333,26.9573333 L106.016,27.1626667 C108.729438,28.1832023 111.721229,28.1832023 114.434667,27.1626667 L114.397333,26.9573333 C113.064249,27.4634884 111.649939,27.72195 110.224,27.72 Z" id="Path" fill="#FFFFFF"></path>
                            <path d="M122.176,15.976 C122.175344,10.956971 119.04106,6.47227259 114.328,4.74666667 L114.370667,4.98666667 C118.232731,6.44478413 121.045928,9.82316711 121.780693,13.8854038 C122.515457,17.9476405 121.063929,22.0974136 117.957333,24.816 L118,25.0533333 C120.653897,22.7849157 122.180176,19.4672562 122.176,15.976 L122.176,15.976 Z" id="Path" fill="#FFFFFF"></path>
                            <polygon id="Path" fill="#FFFFFF" points="108.104 15.6213333 112.349333 15.6213333 112.312 15.4213333 108.138667 15.4213333"></polygon>
                            <path d="M106.08,4.98666667 L106.122667,4.74666667 C101.602548,6.40163814 98.5150845,10.6051284 98.288,15.4133333 L98.288,15.6106667 L104.154667,15.6106667 L104.192,15.4133333 L98.496,15.4133333 C98.7168699,10.7357876 101.697861,6.63744826 106.08,4.98666667 L106.08,4.98666667 Z" id="Path" fill="#FFFFFF"></path>
                            <path d="M122.84,27.3866667 L122.925333,27.3866667 C122.944,27.528 123.021333,27.6533333 123.256,27.6533333 C123.401524,27.6656976 123.529919,27.5587015 123.544,27.4133333 C123.544,27.2586667 123.469333,27.2026667 123.245333,27.168 C123.021333,27.1333333 122.882667,27.0506667 122.882667,26.8746667 C122.882667,26.6986667 123.026667,26.584 123.234667,26.584 C123.406877,26.5615213 123.565986,26.6793801 123.594667,26.8506667 L123.514667,26.8506667 C123.50545,26.7857971 123.470668,26.7273096 123.418071,26.6882378 C123.365474,26.649166 123.299434,26.6327568 123.234667,26.6426667 C123.064,26.6426667 122.968,26.7226667 122.968,26.856 C122.968,26.9893333 123.029333,27.0426667 123.261333,27.0773333 C123.493333,27.112 123.632,27.1866667 123.632,27.3946667 C123.626672,27.4870713 123.583756,27.5732689 123.513232,27.633214 C123.442708,27.6931591 123.350723,27.721628 123.258667,27.712 C123.159677,27.7263306 123.059119,27.6997504 122.980139,27.6383779 C122.90116,27.5770055 122.850565,27.4861287 122.84,27.3866667 Z" id="Path" fill="#595959"></path>
                            <polygon id="Path" fill="#595959" points="123.893333 26.5893333 124.018667 26.5893333 124.426667 27.552 124.821333 26.592 124.944 26.592 124.944 27.7093333 124.858667 27.7093333 124.858667 26.6986667 124.426667 27.7066667 124.4 27.7066667 123.978667 26.6986667 123.978667 27.7066667 123.893333 27.7066667"></polygon>
                        </g>
                    </g>
                </g>
            </g>
        </g>
    </g>
</svg>