<?xml version="1.0" encoding="UTF-8"?>
<svg width="122px" height="25px" viewBox="0 0 122 25" version="1.1" xmlns="http://www.w3.org/2000/svg" xmlns:xlink="http://www.w3.org/1999/xlink">
    <!-- Generator: Sketch 53.2 (72643) - https://sketchapp.com -->
    <title>academyxi</title>
    <desc>Created with Sketch.</desc>
    <g id="Page-1" stroke="none" stroke-width="1" fill="none" fill-rule="evenodd">
        <g id="1.-home" transform="translate(-151.000000, -2051.000000)" fill="#2C2A2A" fill-rule="nonzero">
            <g id="recent-projects" transform="translate(-453.000000, 1103.000000)">
                <g id="cards" transform="translate(588.000000, 425.000000)">
                    <g id="academyxi" transform="translate(0.000000, 342.000000)">
                        <path d="M22.2499267,187.25 L25.3750733,187.25 L31.625,201.3125 L28.189702,201.3125 L26.844308,198.274583 L20.780692,198.274583 L19.435298,201.3125 L16,201.3125 L22.2499267,187.25 Z M23.8226674,191.434594 L22.0015124,195.518392 L25.6231211,195.518392 L23.8226674,191.434594 Z M37.7866741,198.504583 C38.8526241,198.504583 39.8121301,197.976381 40.6650033,196.920913 L42.5625,199.032224 C41.0841738,200.552719 39.4848714,201.3125 37.7655363,201.3125 C36.0452576,201.3125 34.5918438,200.774579 33.4051063,199.697616 C32.21818,198.620653 31.625,197.21305 31.625,195.474246 C31.625,193.736002 32.2251631,192.321297 33.4264328,191.230315 C34.6275139,190.139521 36.0526181,189.59375 37.7013679,189.59375 C38.5255541,189.59375 39.3606867,189.762902 40.2063882,190.100831 C41.0520896,190.438761 41.794933,190.938552 42.4345407,191.599832 L40.7714473,193.753572 C40.4017242,193.317329 39.950847,192.979399 39.4176833,192.740157 C38.8845195,192.500728 38.3551305,192.381107 37.8293272,192.381107 C36.99042,192.381107 36.269092,192.65231 35.6651543,193.193969 C35.0608392,193.736002 34.7590591,194.489241 34.7590591,195.453125 C34.7590591,196.417757 35.0608392,197.167257 35.6651543,197.702001 C36.269092,198.237305 36.976454,198.504583 37.7866741,198.504583 Z M46.5379684,195.484992 C46.5379684,196.400079 46.8128445,197.149941 47.3627841,197.733832 C47.9129109,198.317723 48.5546007,198.610229 49.2880408,198.610229 C50.0209191,198.610229 50.6450078,198.317723 51.1597453,197.733832 C51.6744827,197.149941 51.9319451,196.396527 51.9319451,195.474152 C51.9319451,194.552524 51.6744827,193.785092 51.1597453,193.172792 C50.6450078,192.560678 50.0138037,192.254341 49.2666948,192.254341 C48.5190241,192.254341 47.8775216,192.564229 47.3416254,193.183632 C46.8057292,193.803035 46.5379684,194.569906 46.5379684,195.484992 Z M48.5368124,201.3125 C47.1899566,201.3125 45.9878415,200.74244 44.9300925,199.602507 C43.8727181,198.4622 43.34375,197.04733 43.34375,195.358084 C43.34375,193.669024 43.8584874,192.286302 44.8879623,191.209356 C45.9172501,190.132223 47.1229228,189.59375 48.5051679,189.59375 C49.8870386,189.59375 51.0150046,190.079703 51.8896276,191.050861 L51.8896276,189.784206 L55.0625,189.784206 L55.0625,201.143725 L51.8896276,201.143725 L51.8896276,199.644374 C51.0011485,200.756832 49.883481,201.3125 48.5368124,201.3125 Z M59.0380025,195.603298 C59.0380025,196.499807 59.3128655,197.234447 59.8625915,197.806484 C60.4128792,198.378521 61.054351,198.665089 61.7879431,198.665089 C62.520599,198.665089 63.1448451,198.378521 63.6599323,197.806484 C64.1744579,197.234447 64.4319079,196.496328 64.4319079,195.592678 C64.4319079,194.68976 64.1744579,193.937909 63.6599323,193.338039 C63.1448451,192.738352 62.5136712,192.438234 61.7665981,192.438234 C61.0189633,192.438234 60.3773043,192.741831 59.8419955,193.348659 C59.3057505,193.955487 59.0380025,194.70679 59.0380025,195.603298 Z M61.0365635,201.3125 C59.6899595,201.3125 58.4880893,200.754013 57.4305783,199.637222 C56.37288,198.520065 55.84375,197.133919 55.84375,195.478966 C55.84375,193.824197 56.3584628,192.469546 57.3880756,191.414463 C58.4175011,190.359198 59.6229289,189.831656 61.0051078,189.831656 C62.386725,189.831656 63.5146369,190.307743 64.3894052,191.259186 L64.3894052,185.6875 L67.5625,185.6875 L67.5625,201.147151 L64.3894052,201.147151 L64.3894052,199.678239 C63.5011559,200.768113 62.3831675,201.3125 61.0365635,201.3125 Z M76.2548235,192.761091 C75.836171,192.395499 75.3264368,192.212329 74.7259797,192.212329 C74.1246261,192.212329 73.574192,192.402228 73.074857,192.782211 C72.5751633,193.162382 72.2850649,193.676192 72.2040238,194.323454 L76.9840141,194.323454 C76.9162408,193.647782 76.6732968,193.12743 76.2548235,192.761091 Z M79.1715858,199.496877 C77.9425223,200.707479 76.5011741,201.3125 74.8470034,201.3125 C73.193012,201.3125 71.8255332,200.781682 70.7452841,199.718737 C69.6652142,198.655605 69.125,197.230432 69.125,195.442845 C69.125,193.655071 69.6752547,192.23345 70.7759434,191.177607 C71.8764528,190.121952 73.1761583,189.59375 74.6748808,189.59375 C76.174141,189.59375 77.4465938,190.065692 78.4929563,191.008456 C79.5391395,191.951967 80.0625,193.247051 80.0625,194.893897 L80.0625,196.58317 L72.1228034,196.58317 C72.2172916,197.202583 72.5280089,197.709103 73.0544174,198.103105 C73.5815431,198.497107 74.1751871,198.694294 74.8373215,198.694294 C75.9034064,198.694294 76.7815907,198.321787 77.4702607,197.575464 L79.1715858,199.496877 Z M91.6491255,195.513834 L91.6491255,201.3125 L88.5852157,201.3125 L88.5852157,195.433656 C88.5852157,194.5809 88.4533685,193.954166 88.1894956,193.55416 C87.9258018,193.154685 87.4995453,192.954329 86.9112645,192.954329 C86.3224449,192.954329 85.8018837,193.171323 85.3488625,193.604426 C84.8951229,194.037707 84.668792,194.674176 84.668792,195.513834 L84.668792,201.3125 L81.625,201.3125 L81.625,190.555179 L84.668792,190.555179 L84.668792,191.774843 C85.5074738,190.841909 86.4675841,190.375 87.5502003,190.375 C88.2401507,190.375 88.8657941,190.575357 89.42749,190.975185 C89.9886469,191.374837 90.4113107,191.861747 90.6953022,192.434675 C91.1147331,191.781569 91.6798422,191.27519 92.3900902,190.915185 C93.0999789,190.555179 93.8138192,190.375 94.5310732,190.375 C95.8159502,190.375 96.850965,190.751996 97.635579,191.50475 C98.4198336,192.258212 98.8125,193.348139 98.8125,194.774177 L98.8125,201.3125 L95.74841,201.3125 L95.74841,195.433656 C95.74841,193.781243 95.1330058,192.954329 93.9020167,192.954329 C93.2927193,192.954329 92.765512,193.171323 92.3189577,193.604426 C91.8725826,194.037707 91.6491255,194.674176 91.6491255,195.513834 Z M102.815439,206 C101.754554,206 100.754449,205.555194 99.8149459,204.666689 L101.184364,202.353958 C101.694487,202.867734 102.217622,203.124622 102.754838,203.124622 C103.036635,203.124622 103.278329,202.982255 103.479918,202.697705 C103.680973,202.412786 103.781857,202.1109 103.781857,201.791312 C103.781857,201.472092 102.385524,197.666716 99.59375,190.375 L102.815439,190.375 L105.452858,197.354135 L108.090811,190.375 L111.3125,190.375 L106.278644,203.583259 C105.982944,204.346916 105.523619,204.940544 104.899422,205.364326 C104.275225,205.787924 103.580267,206 102.815439,206 Z M123.888442,191.439091 L123.888442,196.303783 L121.785818,198.552148 L123.072975,198.552148 L123.072975,201.3125 L116,201.3125 L116,198.552148 L117.096109,198.552148 L121.607726,193.871527 L117.096109,189.190727 L116,189.190727 L116,186.190274 L123.072975,186.190274 L123.072975,189.190727 L121.785818,189.190727 L123.888442,191.439091 Z M123.888442,196.303783 L123.888442,191.439091 L125.990883,189.190727 L124.703909,189.190727 L124.703909,186.190274 L131.776884,186.190274 L131.776884,189.190727 L130.680776,189.190727 L126.168976,193.871527 L130.680776,198.552148 L131.776884,198.552148 L131.776884,201.3125 L124.703909,201.3125 L124.703909,198.552148 L125.990883,198.552148 L123.888442,196.303783 Z M133.733347,182.773191 C133.66784,182.618032 133.634996,182.452099 133.634996,182.27539 C133.634996,182.098682 133.66784,181.932568 133.733347,181.77723 C133.799038,181.622251 133.889909,181.487205 134.006326,181.372453 C134.122925,181.257879 134.259961,181.167191 134.417617,181.100386 C134.575273,181.033402 134.746432,181 134.930911,181 C135.105536,181 135.270491,181.033402 135.425957,181.100386 C135.58124,181.167191 135.717182,181.257879 135.833599,181.372453 C135.950016,181.487205 136.042165,181.622251 136.110227,181.77723 C136.178106,181.932568 136.212046,182.098682 136.212046,182.27539 C136.212046,182.452099 136.178106,182.618032 136.110227,182.773191 C136.042165,182.92835 135.950016,183.063216 135.833599,183.177968 C135.717182,183.292721 135.58124,183.38359 135.425957,183.450394 C135.270491,183.517198 135.105536,183.550601 134.930911,183.550601 C134.746432,183.550601 134.575273,183.517198 134.417617,183.450394 C134.259961,183.38359 134.122925,183.292721 134.006326,183.177968 C133.889909,183.063216 133.799038,182.92835 133.733347,182.773191 Z M132.753474,184.196197 L136.045267,184.196197 L136.045267,189.19791 L137.09375,189.19791 L137.09375,191.160919 L132.753474,191.160919 L132.753474,189.19791 L133.795936,189.19791 L133.795936,186.159386 L132.753474,186.159386 L132.753474,184.196197 Z"></path>
                    </g>
                </g>
            </g>
        </g>
    </g>
</svg>