<?xml version="1.0" encoding="UTF-8"?>
<svg width="42px" height="44px" viewBox="0 0 42 44" version="1.1" xmlns="http://www.w3.org/2000/svg" xmlns:xlink="http://www.w3.org/1999/xlink">
    <!-- Generator: Sketch 53.2 (72643) - https://sketchapp.com -->
    <title>api</title>
    <desc>Created with Sketch.</desc>
    <g id="Page-1" stroke="none" stroke-width="1" fill="none" fill-rule="evenodd" stroke-linecap="square">
        <g id="1.-home" transform="translate(-937.000000, -939.000000)" stroke="#DF3940" stroke-width="2">
            <g id="what-we-do" transform="translate(0.000000, 648.000000)">
                <g id="cards" transform="translate(136.000000, 256.000000)">
                    <g id="api" transform="translate(802.000000, 36.000000)">
                        <polyline id="Path" points="7 11 7 16 14 23 14 42"></polyline>
                        <polyline id="Path" points="3 28 3 33 8 38 8 42"></polyline>
                        <polyline id="Path" points="37 28 37 33 32 38 32 42"></polyline>
                        <polyline id="Path" points="33 11 33 16 26 23 26 42"></polyline>
                        <circle id="Oval" cx="3" cy="25" r="3"></circle>
                        <circle id="Oval" cx="37" cy="25" r="3"></circle>
                        <circle id="Oval" cx="7" cy="8" r="3"></circle>
                        <circle id="Oval" cx="33" cy="8" r="3"></circle>
                        <polyline id="Path" points="20 6 20 20 20 42"></polyline>
                        <circle id="Oval" cx="20" cy="3" r="3"></circle>
                    </g>
                </g>
            </g>
        </g>
    </g>
</svg>