<?xml version="1.0" encoding="UTF-8"?>
<svg width="44px" height="44px" viewBox="0 0 44 44" version="1.1" xmlns="http://www.w3.org/2000/svg" xmlns:xlink="http://www.w3.org/1999/xlink">
    <!-- Generator: Sketch 53.2 (72643) - https://sketchapp.com -->
    <title>expert</title>
    <desc>Created with Sketch.</desc>
    <g id="Page-1" stroke="none" stroke-width="1" fill="none" fill-rule="evenodd" stroke-linecap="square">
        <g id="1.-home" transform="translate(-699.000000, -4616.000000)" stroke="#DF3940" stroke-width="2">
            <g id="advantage" transform="translate(0.000000, 4191.000000)">
                <g id="cards" transform="translate(152.000000, 426.000000)">
                    <g id="expert" transform="translate(548.000000, 0.000000)">
                        <path d="M39.7,30.175 C38.4159564,31.3485122 36.739511,31.9994723 35,32 L33,32" id="Path"></path>
                        <path d="M39.632,19.761 C37.8338373,21.8197737 35.2334845,23.0007247 32.5,23 L32,23.0000003" id="Path"></path>
                        <path d="M2.3,30.175 C3.58404363,31.3485122 5.26048897,31.9994723 7,32 L9,32" id="Path"></path>
                        <path d="M2.368,19.761 C4.16616265,21.8197737 6.7665155,23.0007247 9.5,23 L10,23.0000003" id="Path"></path>
                        <path d="M21,32.5 C20.9832532,36.1858681 23.1000653,39.5487551 26.4307248,41.1275556 C29.7613843,42.7063561 33.704674,42.2160808 36.5473151,39.8697443 C39.3899563,37.5234077 40.6188238,33.7445471 39.7,30.175 C41.1751687,28.8410913 42.0110586,26.9411029 41.9976906,24.9523203 C41.9843225,22.9635377 41.1229669,21.0749577 39.63,19.761 C42.0958503,16.9615192 42.6925339,12.9769173 41.1548887,9.57792359 C39.6172436,6.17892993 36.2306161,3.99630808 32.5,4 C32.263,4 32.03,4.018 31.8,4.036 C31.0651885,1.38610729 28.4861635,-0.31385471 25.7611984,0.0555294436 C23.0362334,0.424913597 21.0028415,2.75011433 21,5.5 L21,7.5 C21,8.95869069 21.5794626,10.3576372 22.6109127,11.3890873 C23.6423628,12.4205374 25.0413093,13 26.5,13 L28,13" id="Path"></path>
                        <path d="M21,32.5 C21.0167468,36.1858681 18.8999347,39.5487551 15.5692752,41.1275556 C12.2386157,42.7063561 8.29532601,42.2160808 5.45268488,39.8697443 C2.61004374,37.5234077 1.38117618,33.7445471 2.3,30.175 C0.824831321,28.8410913 -0.0110586242,26.9411029 0.00230941724,24.9523203 C0.0156774586,22.9635377 0.877033103,21.0749577 2.37,19.761 C-0.095850274,16.9615192 -0.692533866,12.9769173 0.845111259,9.57792359 C2.38275638,6.17892993 5.76938386,3.99630808 9.5,4 C9.737,4 9.97,4.018 10.2,4.036 C10.9348115,1.38610729 13.5138365,-0.31385471 16.2388016,0.0555294436 C18.9637666,0.424913597 20.9971585,2.75011433 21,5.5 L21,7.5 C21,10.5375661 18.5375661,13 15.5,13 L14,13" id="Path"></path>
                        <circle id="Oval" cx="11" cy="13" r="3"></circle>
                        <circle id="Oval" cx="12" cy="32" r="3"></circle>
                        <circle id="Oval" cx="31" cy="13" r="3"></circle>
                        <circle id="Oval" cx="30" cy="32" r="3"></circle>
                        <path d="M21,32.455 L21,25" id="Path"></path>
                        <circle id="Oval" cx="21" cy="22" r="3"></circle>
                    </g>
                </g>
            </g>
        </g>
    </g>
</svg>