<?xml version="1.0" encoding="UTF-8"?>
<svg width="140px" height="40px" viewBox="0 0 140 40" version="1.1" xmlns="http://www.w3.org/2000/svg" xmlns:xlink="http://www.w3.org/1999/xlink">
    <!-- Generator: Sketch 59.1 (86144) - https://sketch.com -->
    <title>reuters</title>
    <desc>Created with Sketch.</desc>
    <g id="Page-1" stroke="none" stroke-width="1" fill="none" fill-rule="evenodd">
        <g id="1.-home" transform="translate(-23.000000, -608.000000)" fill="#ACA9B8" fill-rule="nonzero">
            <g id="reuters" transform="translate(23.000000, 608.000000)">
                <path d="M63.3311485,26.6330341 L61.0419907,26.6330341 C60.8366601,26.6330341 60.7600774,26.4432421 60.6674012,26.2589995 L57.9664723,21.7123158 L57.5519267,21.7123158 C57.0624631,21.7123158 55.5469018,21.6590408 55.1157077,21.6351781 L55.1157077,26.2589995 C55.1157077,26.4637751 54.9642071,26.6330341 54.7572117,26.6330341 L52.8825995,26.6330341 C52.6765301,26.6318219 52.5097772,26.4650689 52.508565,26.2589995 L52.508565,13.9708 C52.508565,13.5945457 52.7305439,13.4635781 53.1079081,13.4080833 C54.0846155,13.2576926 56.1806517,13.1650164 57.5513717,13.1650164 C60.4382079,13.1650164 63.105285,14.1966636 63.105285,17.4025945 L63.105285,17.5718534 C63.105285,19.5574551 62.1119292,20.6440421 60.574725,21.2406105 L63.516501,26.2589995 C63.5553503,26.3156042 63.5553503,26.3683242 63.5553503,26.4105002 C63.5559022,26.5375831 63.4809843,26.6330341 63.3311485,26.6330341 L63.3311485,26.6330341 Z M60.5181203,17.4025945 C60.5181203,15.9963579 59.4270938,15.3970147 57.5519267,15.3970147 C57.1568041,15.3970147 55.4508959,15.4341962 55.1157077,15.4708227 L55.1157077,19.537477 C55.4126046,19.5557903 57.2295022,19.5940817 57.5519267,19.5940817 C59.4809237,19.5940817 60.5181203,19.221157 60.5181203,17.5718534 L60.5181203,17.4025945 L60.5181203,17.4025945 Z M68.5548681,22.9393044 C68.5548681,24.5120252 68.6153574,24.5530913 70.0332479,24.5530913 L74.7797127,24.5530913 C74.9868284,24.5536969 75.1547496,24.7211228 75.1559671,24.9282358 L75.1559671,26.1258122 C75.1559671,26.3905221 75.061626,26.4843082 74.7797127,26.5203798 C74.1803696,26.6147208 72.9589304,26.7817626 70.7291519,26.7817626 C67.6170071,26.7817626 65.9654837,26.8034029 65.9654837,22.9393044 L65.9654837,17.006917 C65.9654837,13.1439284 67.6170071,13.16557 70.7291519,13.16557 C72.9589304,13.16557 74.1803696,13.3348303 74.7797127,13.4275065 C75.061626,13.4635781 75.1559671,13.559029 75.1559671,13.8220741 L75.1559671,15.0202055 C75.1559671,15.224981 74.9867081,15.3975697 74.7797127,15.3975697 L70.0332479,15.3975697 C68.6153574,15.3975697 68.5548681,15.4391907 68.5548681,17.006917 L68.5548681,18.7272539 L74.555514,18.7272539 C74.7615561,18.7281486 74.9287913,18.8941487 74.9312134,19.1001785 L74.9312134,20.4536951 C74.9293969,20.6602504 74.7620737,20.8270793 74.555514,20.8282846 L68.5548681,20.8282846 L68.5548681,22.9393044 L68.5548681,22.9393044 Z M83.5745186,26.78176 C80.5583797,26.78176 77.9595612,25.4704193 77.9595612,21.4742433 L77.9595612,13.6716833 C77.9595612,13.4635781 78.1310399,13.3142972 78.3369254,13.3142972 L80.1898946,13.3142972 C80.3979999,13.3142972 80.565594,13.4635781 80.565594,13.6716833 L80.565594,21.4742433 C80.565594,23.6130105 81.5539553,24.6274543 83.5750736,24.6274543 C85.6017414,24.6274543 86.5895477,23.6130105 86.5895477,21.4742433 L86.5895477,13.6716833 C86.5895477,13.4635781 86.7571418,13.3142972 86.9630272,13.3142972 L88.8187712,13.3142972 C89.0268765,13.3142972 89.1961355,13.4635781 89.1961355,13.6716833 L89.1961355,21.4742433 C89.1950256,25.4698644 86.5950971,26.78176 83.5745186,26.78176 Z M101.523736,15.4880261 L97.783391,15.4880261 L97.783391,26.2589995 C97.7800612,26.4663409 97.6111749,26.6327581 97.403807,26.6330341 L95.548063,26.6330341 C95.3415932,26.6321312 95.1741835,26.4654633 95.1723637,26.2589995 L95.1723637,15.4880261 L91.4292437,15.4880261 C91.225578,15.4880261 91.056319,15.3592783 91.056319,15.1528379 L91.056319,13.6716833 C91.056319,13.4635781 91.225578,13.3142972 91.4292437,13.3142972 L101.523181,13.3142972 C101.725737,13.3142972 101.894997,13.4635781 101.894997,13.6716833 L101.894997,15.1528379 C101.895551,15.3592783 101.726847,15.4880261 101.523736,15.4880261 Z M126.986386,26.6330341 L124.697228,26.6330341 C124.491343,26.6330341 124.417535,26.4432421 124.324304,26.2589995 L121.622265,21.7123158 L121.203835,21.7123158 C120.719366,21.7123158 119.20214,21.6590408 118.768171,21.6351781 L118.768171,26.2589995 C118.768171,26.4637751 118.619445,26.6330341 118.414669,26.6330341 L116.541722,26.6330341 C116.334911,26.6327351 116.16699,26.4658049 116.165468,26.2589995 L116.165468,13.9708 C116.165468,13.5945457 116.387447,13.4635781 116.763701,13.4080833 C117.738188,13.2576926 119.837554,13.1650164 121.20328,13.1650164 C124.092891,13.1650164 126.758303,14.1966636 126.758303,17.4025945 L126.758303,17.5718534 C126.758303,19.5574551 125.763282,20.6440421 124.226633,21.2406105 L127.173959,26.2589995 C127.202479,26.3041374 127.215711,26.357258 127.211695,26.4105002 C127.211695,26.5375831 127.135112,26.6330341 126.986386,26.6330341 L126.986386,26.6330341 Z M124.173913,17.4025945 C124.173913,15.9963579 123.082332,15.3970147 121.203835,15.3970147 C120.812597,15.3970147 119.106689,15.4341962 118.768171,15.4708227 L118.768171,19.537477 C119.071727,19.5557903 120.89029,19.5940817 121.203835,19.5940817 C123.138381,19.5940817 124.173913,19.221157 124.173913,17.5718534 L124.173913,17.4025945 L124.173913,17.4025945 Z M134.142433,26.7900842 C132.48536,26.7900842 130.806089,26.5059511 129.9043,26.2989558 C129.718947,26.2612193 129.548578,26.1308067 129.548578,25.9249212 L129.548578,24.5741793 C129.548578,24.3694038 129.718947,24.2173482 129.9043,24.2173482 L129.940926,24.2173482 C130.69288,24.3116892 132.448178,24.5553111 134.181279,24.5553111 C135.848341,24.5553111 136.358892,23.9581878 136.358892,22.8721558 C136.358892,21.4653642 133.002016,20.686773 131.363256,20.011957 C129.732266,19.337141 129.154566,18.0452236 129.154566,16.7344379 C129.154566,14.6705886 130.814968,13.1705659 134.301703,13.1705659 C136.089188,13.1705659 137.725728,13.5101937 138.362807,13.6633591 C138.551489,13.7010956 138.698551,13.8326181 138.698551,14.0190804 L138.698551,15.4064488 C138.698551,15.5918012 138.570913,15.7433019 138.380011,15.7433019 L138.344494,15.7433019 C137.105852,15.6317575 135.822258,15.4036741 134.192378,15.4036741 C132.80279,15.4036741 131.763373,15.8909179 131.763373,16.7344379 C131.763373,17.3515393 132.468156,17.9181406 133.300578,18.2488892 C134.132999,18.5768631 135.22458,19.0013979 136.472102,19.5030703 C138.051482,20.1418147 139.07536,21.0724614 139.07536,22.8721558 C139.074805,24.7645263 137.894432,26.7900842 134.142433,26.7900842 L134.142433,26.7900842 Z M106.413378,22.9393044 C106.413378,24.5120252 106.471647,24.5530913 107.892867,24.5530913 L112.642662,24.5530913 C112.848043,24.5561085 113.01329,24.7228361 113.014476,24.9282358 L113.014476,26.1258122 C113.014476,26.3905221 112.920135,26.4843082 112.642662,26.5203798 C112.038879,26.6147208 110.81966,26.7817626 108.589881,26.7817626 C105.471632,26.7817626 103.823993,26.8034029 103.823993,22.9393044 L103.823993,17.006917 C103.823993,13.1439284 105.471632,13.16557 108.589881,13.16557 C110.81966,13.16557 112.038879,13.3348303 112.642662,13.4275065 C112.920135,13.4635781 113.014476,13.559029 113.014476,13.8220741 L113.014476,15.0202055 C113.014476,15.224981 112.844108,15.3975697 112.642662,15.3975697 L107.892867,15.3975697 C106.471647,15.3975697 106.413378,15.4391907 106.413378,17.006917 L106.413378,18.7272539 L112.414578,18.7272539 C112.622684,18.7272539 112.786393,18.8976227 112.786393,19.1001785 L112.786393,20.4536951 C112.787007,20.6597467 112.620629,20.827367 112.414578,20.8282846 L106.413378,20.8282846 L106.413378,22.9393044 Z M30.029312,12.6816572 C29.5055974,13.234045 28.6334456,13.2578851 28.0803368,12.7349322 C27.813588,12.4844271 27.6578312,12.1378328 27.6476211,11.7720412 C27.637411,11.4062496 27.7735919,11.0515066 28.025952,10.786512 C28.2759723,10.5198776 28.6218242,10.3637023 28.9871701,10.3524577 C29.3525161,10.3412131 29.7073177,10.4758236 29.9732623,10.7265777 C30.5277624,11.2513645 30.5528361,12.1259648 30.029312,12.6816572 L30.029312,12.6816572 Z M16.2860404,9.54731451 C16.0120253,9.29090237 15.5825464,9.30328642 15.3237617,9.57506188 C15.0676037,9.84832804 15.0799961,10.2771053 15.351509,10.5351208 C15.6255925,10.7918514 16.0555809,10.7789567 16.3137878,10.5062636 C16.569819,10.2333721 16.5574224,9.8049452 16.2860404,9.54731451 Z M19.7317086,8.23652883 C19.3936564,7.92061416 18.8640131,7.93672404 18.5457861,8.27260041 C18.3928942,8.43499309 18.3107959,8.65148352 18.3175611,8.87442194 C18.3243262,9.09736036 18.4194004,9.30847441 18.5818577,9.46129767 C18.9205468,9.77683531 19.4503819,9.75998368 19.7683351,9.42356125 C20.0839238,9.08486979 20.0675781,8.5551192 19.7317086,8.23652883 L19.7317086,8.23652883 Z M23.4276581,7.96626946 C22.9986738,7.56391773 22.3252935,7.58350426 21.920421,8.0101103 C21.5376642,8.44176293 21.5670148,9.09939659 21.9867031,9.49523557 C22.4063914,9.89107456 23.0646164,9.88194411 23.4731638,9.47461641 C23.8758155,9.04503928 23.8554739,8.37079201 23.4276581,7.96626946 L23.4276581,7.96626946 Z M26.9243814,8.86139957 C26.6932704,8.64238666 26.384426,8.52447442 26.0661603,8.53374328 C25.7478946,8.54301215 25.4464358,8.67869827 25.2284623,8.91078988 C25.0099626,9.14193337 24.8922379,9.4504112 24.9011882,9.76835669 C24.9101385,10.0863022 25.0450307,10.3876687 25.2761878,10.6061541 C25.7590058,11.0596692 26.5175919,11.0375913 26.9732168,10.5567638 C27.4266901,10.0746588 27.4048541,9.31660205 26.9243814,8.86139957 L26.9243814,8.86139957 Z M13.3647975,11.8425768 C13.160585,11.6520153 12.8410108,11.6614218 12.6483604,11.8636648 C12.5556575,11.9609999 12.5055844,12.0912766 12.50923,12.2256442 C12.5128756,12.3600118 12.5699392,12.4873817 12.6677836,12.5795469 C12.7649818,12.6725986 12.8953914,12.7228579 13.029898,12.7191042 C13.1644046,12.7153505 13.2918082,12.6578965 13.3836657,12.5595688 C13.5761067,12.3562361 13.5676664,12.0355067 13.3647975,11.8425768 L13.3647975,11.8425768 Z M31.0110139,24.3499806 C30.7533105,24.6237174 30.7657213,25.0543727 31.0387612,25.3128143 C31.3148848,25.5584632 31.7363628,25.539732 31.9896067,25.270557 C32.2428506,25.0013821 32.2358651,24.5795459 31.9738475,24.3189035 C31.6989765,24.0626967 31.268791,24.0765817 31.0110139,24.3499806 L31.0110139,24.3499806 Z M31.8822812,20.8382737 C31.567693,21.1767813 31.5847836,21.7055978 31.9205726,22.0230863 C32.0824064,22.1763662 32.298672,22.2588013 32.5214734,22.252135 C32.7442748,22.2454687 32.9552249,22.150251 33.107605,21.9875697 C33.2608879,21.8258445 33.3431909,21.6095732 33.3362082,21.3868583 C33.3292256,21.1641434 33.2335364,20.9534526 33.0704235,20.8016471 C32.7315883,20.4853194 32.2009889,20.501676 31.8822812,20.8382737 L31.8822812,20.8382737 Z M31.6147966,17.1401044 C31.4205947,17.3457588 31.3162886,17.620286 31.3249318,17.9030109 C31.333575,18.1857359 31.4544556,18.4533789 31.6608572,18.6467865 C31.8665801,18.8408496 32.1410772,18.945062 32.4237567,18.9364202 C32.7064362,18.9277784 32.9740549,18.8069931 33.1675393,18.6007259 C33.5581949,18.1702344 33.5319372,17.5061318 33.1085123,17.1078279 C32.6850874,16.709524 32.0206211,16.7238819 31.6147966,17.1401044 L31.6147966,17.1401044 Z M30.323989,13.7127495 C29.991186,14.066222 29.9042035,14.5854199 30.1036321,15.0280585 C30.3030607,15.470697 30.7495895,15.7495241 31.2348447,15.7344244 C31.7201,15.7193248 32.1484292,15.4132748 32.3199515,14.9590934 C32.4914738,14.504912 32.3723792,13.9921265 32.0182433,13.6600295 C31.5398787,13.2060825 30.7796008,13.232165 30.323989,13.7127495 L30.323989,13.7127495 Z M29.1380665,27.3960867 C28.9474302,27.6006707 28.9573376,27.9206793 29.1602644,28.1130787 C29.2582802,28.2048727 29.3888821,28.2537453 29.5230807,28.2488483 C29.6572793,28.2439513 29.7839718,28.1856899 29.8750366,28.0869962 C29.9681921,27.99062 30.0184397,27.8606837 30.014364,27.7267072 C30.0102883,27.5927307 29.9522352,27.4660891 29.8533936,27.3755536 C29.7563582,27.2823222 29.6259356,27.2319826 29.4914251,27.2358437 C29.3569145,27.2397047 29.2295943,27.2974426 29.1380665,27.3960867 L29.1380665,27.3960867 Z M14.5007747,29.1685886 C15.0151538,28.6129486 14.985822,27.7466329 14.4350383,27.2270572 C13.8842546,26.7074816 13.0177016,26.7286744 12.4929751,27.2745532 C11.9971806,27.8326153 12.0347223,28.6836854 12.5777291,29.1959248 C13.1207358,29.7081642 13.9725474,29.6960556 14.5007747,29.1685886 Z M11.5151579,15.604565 C11.6819967,15.4277139 11.7418132,15.1752893 11.672075,14.942377 C11.6023369,14.7094648 11.4136389,14.5314499 11.177062,14.4753888 C10.940485,14.4193277 10.6919706,14.4937375 10.5251318,14.6705886 C10.2643065,14.9425128 10.279845,15.3714871 10.5556539,15.6312025 C10.8259132,15.8864783 11.2554425,15.8759343 11.5151579,15.604565 L11.5151579,15.604565 Z M10.6405608,19.1179368 C10.9568657,18.7794705 10.9415154,18.2493896 10.6061541,17.9297945 C10.2670144,17.6260411 9.74764382,17.6476742 9.4349392,17.9785786 C9.12223459,18.309483 9.12998572,18.829246 9.45241851,19.1506787 C9.79020326,19.468037 10.3207665,19.4534162 10.6405608,19.1179368 L10.6405608,19.1179368 Z M10.9097103,22.8144412 C11.3143663,22.3846617 11.2942465,21.7082861 10.8647596,21.3033195 C10.4350442,20.8999725 9.75985553,20.9208316 9.35585767,21.3499351 C8.95356244,21.7796254 8.97440271,22.4537088 9.40247325,22.8577271 C9.83311241,23.2645035 10.5068185,23.2428606 10.9097103,22.8144412 L10.9097103,22.8144412 Z M12.1982981,26.2429061 C12.6519955,25.7605801 12.629906,25.0020917 12.1489078,24.5469869 C11.9178599,24.3288017 11.609411,24.2116494 11.2917759,24.2214389 C10.9741408,24.2312283 10.6734916,24.3671527 10.4563183,24.599152 C10.2371205,24.8298003 10.1187236,25.1381994 10.1272612,25.4562771 C10.1357988,25.7743548 10.2705689,26.0759586 10.501824,26.2945162 C10.9858643,26.7452359 11.7425511,26.722216 12.1982981,26.2429061 L12.1982981,26.2429061 Z M26.2384665,30.4072311 C26.3696012,30.531245 26.5447625,30.5978676 26.7251656,30.5923472 C26.9055686,30.5868268 27.0763286,30.5096188 27.1996353,30.3778189 C27.3233789,30.2469904 27.3898524,30.0722231 27.3843318,29.8922284 C27.3788111,29.7122338 27.3017519,29.5418688 27.1702231,29.4188699 C27.0395181,29.2948819 26.8647863,29.228101 26.6847038,29.2333087 C26.5046213,29.2385164 26.3340407,29.3152832 26.2107191,29.4466172 C25.9532662,29.7196032 25.9656856,30.149561 26.2384665,30.4072311 L26.2384665,30.4072311 Z M22.7927983,31.716352 C23.1313162,32.0354467 23.6618459,32.0143587 23.9798307,31.6791705 C24.1328095,31.5178126 24.2151836,31.3021464 24.2087263,31.0798916 C24.202269,30.8576368 24.1075128,30.6471169 23.945424,30.4949128 C23.6064909,30.1771655 23.0743638,30.1935463 22.7556168,30.5315393 C22.4404291,30.8696326 22.4570317,31.3986868 22.7927983,31.716352 L22.7927983,31.716352 Z M19.094629,31.9832816 C19.527488,32.391168 20.1978644,32.3711899 20.6013111,31.9427705 C20.7960074,31.7376226 20.9009988,31.46339 20.8930848,31.1806716 C20.8851708,30.8979532 20.7650028,30.6300235 20.5591351,30.4360884 C20.1297101,30.0323013 19.454794,30.0511454 19.0485684,30.4782644 C18.8547428,30.6837748 18.7506657,30.9579688 18.7593073,31.2403306 C18.7679489,31.5226924 18.8885988,31.7900087 19.094629,31.9832816 L19.094629,31.9832816 Z M15.60512,31.0931461 C15.8359472,31.3114745 16.1441975,31.4289244 16.4617833,31.419553 C16.779369,31.4101817 17.0801576,31.2747601 17.2977094,31.0432008 C17.7511599,30.5609404 17.7278048,29.8023969 17.2455444,29.3489465 C16.763284,28.8954961 16.0047405,28.9188511 15.5512901,29.4011115 C15.3336269,29.6324194 15.2169691,29.9408433 15.2270686,30.2582998 C15.2371681,30.5757562 15.3731943,30.8761413 15.60512,31.0931461 L15.60512,31.0931461 Z" id="Shape"></path>
                <path d="M24.6868337,12.135589 C24.6064009,12.4079477 24.4208325,12.6370712 24.1711286,12.7723361 C23.9214247,12.9076011 23.6281385,12.9378738 23.3560699,12.8564657 C23.0820619,12.777343 22.8510406,12.5919914 22.7144048,12.3416488 C22.577769,12.0913061 22.5468525,11.7967383 22.6285339,11.5234821 C22.7378762,11.1558022 23.0350676,10.8743855 23.4081589,10.7852389 C23.7812502,10.6960922 24.1735599,10.8127592 24.4373088,11.0912923 C24.7010577,11.3698255 24.796176,11.7679092 24.6868337,12.135589 L24.6868337,12.135589 Z M14.3964446,14.6700337 C14.1149023,14.5916873 13.822276,14.752287 13.7371671,15.0318593 C13.6667841,15.3084329 13.8280465,15.5910753 14.1019526,15.6712137 C14.3758587,15.7513522 14.6640375,15.6002057 14.7538307,15.3293111 C14.8415124,15.0501726 14.6750282,14.7566055 14.3964446,14.6700337 L14.3964446,14.6700337 Z M16.258293,12.6222779 C16.0918976,12.5732339 15.9128138,12.5925748 15.7607264,12.6760145 C15.6086391,12.7594542 15.4961079,12.9001021 15.4480699,13.0667907 C15.3984386,13.2332589 15.4172814,13.4126496 15.5004186,13.5651721 C15.5835559,13.7176946 15.7241148,13.83074 15.8909179,13.8792337 C16.2378497,13.9796029 16.6008042,13.7814024 16.7039158,13.4352758 C16.8035068,13.0879222 16.60468,12.7251807 16.258293,12.6222779 L16.258293,12.6222779 Z M18.6440118,11.1788598 C18.2034728,11.0516723 17.7425179,11.3021805 17.6095899,11.7410215 C17.4825749,12.1822102 17.7357314,12.6431484 18.1761911,12.7726686 C18.387554,12.835822 18.6153893,12.8119002 18.8090257,12.7062235 C19.0026621,12.6005468 19.1460442,12.4218774 19.2072833,12.209952 C19.3316299,11.7702137 19.0812201,11.3118283 18.6440118,11.1788598 L18.6440118,11.1788598 Z M21.2861162,10.5878408 C21.0480413,10.5165532 20.7913578,10.5432678 20.5730649,10.6620525 C20.354772,10.7808372 20.1929386,10.9818597 20.1235014,11.2204808 C20.0527036,11.4582586 20.0795975,11.7144484 20.1982299,11.9323404 C20.3168623,12.1502325 20.5174483,12.3118547 20.7555865,12.3814307 C21.2502499,12.525946 21.7687459,12.2437612 21.9159814,11.7499006 C21.9876714,11.5122683 21.9614641,11.2558438 21.8431851,11.0376268 C21.7249061,10.8194099 21.5243567,10.6574832 21.2861162,10.5878408 L21.2861162,10.5878408 Z M13.2194012,17.2050332 C13.1193879,17.1753331 13.0116593,17.1867494 12.9200923,17.2367518 C12.8285253,17.2867543 12.7606832,17.3712128 12.7316025,17.471408 C12.701029,17.5723008 12.7118041,17.681208 12.7615555,17.7741537 C12.8113069,17.8670993 12.895956,17.9364636 12.9968674,17.966976 C13.2088572,18.0280202 13.4275065,17.9059318 13.4891057,17.6961617 C13.5187684,17.5952649 13.506984,17.4867058 13.4563622,17.3945242 C13.4057404,17.3023425 13.3204584,17.2341449 13.2194012,17.2050332 L13.2194012,17.2050332 Z M29.2501659,19.5879772 C29.2098882,19.7229519 29.2252981,19.8684317 29.2929591,19.9919729 C29.3606201,20.1155141 29.4749049,20.2068422 29.6103267,20.2455899 C29.8910706,20.3281886 30.185618,20.1675603 30.2682168,19.8868164 C30.3508156,19.6060725 30.1901872,19.3115251 29.9094433,19.2289263 C29.628326,19.1468274 29.3337017,19.3072836 29.2501659,19.5879772 L29.2501659,19.5879772 Z M28.637504,16.9381036 C28.5873738,17.1050889 28.6060836,17.2851856 28.6894681,17.4383004 C28.7728526,17.5914153 28.9139906,17.704839 29.0814619,17.7533212 C29.4310787,17.8565414 29.7917945,17.6567604 29.8939048,17.3093633 C29.9960151,16.9619663 29.7990088,16.5995857 29.4521667,16.4996951 C29.2859984,16.4496779 29.1067617,16.4677811 28.9539511,16.5500157 C28.8011405,16.6322503 28.6872963,16.7718678 28.637504,16.9381036 L28.637504,16.9381036 Z M27.1946408,14.5546046 C27.1111718,14.8394103 27.1859853,15.1471117 27.3908997,15.3618008 C27.5958142,15.5764899 27.8996982,15.6655503 28.1880817,15.5954337 C28.4764651,15.5253171 28.7055356,15.306676 28.7890046,15.0218703 C28.851719,14.8107979 28.8274161,14.5834105 28.7215094,14.3903601 C28.6156027,14.1973097 28.4368891,14.0546315 28.2251781,13.9941078 C27.7861502,13.8673273 27.326796,14.1171646 27.1946408,14.5546046 L27.1946408,14.5546046 Z M25.1640884,12.7033002 C25.0195788,13.1988929 25.3041879,13.7177982 25.7997806,13.8623078 C26.2953733,14.0068173 26.8142786,13.7222082 26.9587882,13.2266156 C27.0295987,12.9891323 27.0028277,12.7332192 26.8844016,12.515532 C26.7659756,12.2978447 26.565664,12.1363411 26.327813,12.0667756 C25.8307193,11.9214829 25.3098976,12.2063578 25.1640884,12.7033002 L25.1640884,12.7033002 Z M29.0354012,22.2628235 C28.9759063,22.4715585 29.0939275,22.6896144 29.301221,22.753952 C29.4020497,22.784262 29.5108248,22.7728365 29.603155,22.7222375 C29.6954851,22.6716385 29.7636446,22.5860998 29.7923494,22.4848025 C29.8227544,22.3841995 29.8116473,22.2756137 29.7615039,22.1832499 C29.7113606,22.090886 29.6263493,22.022422 29.5254197,21.9931191 C29.3158592,21.9343249 29.0978423,22.0543206 29.0354012,22.2628235 L29.0354012,22.2628235 Z M19.8987478,28.4360581 C19.9800157,28.1620002 19.9487777,27.8668595 19.8119399,27.6158861 C19.6751022,27.3649128 19.4439356,27.1787788 19.1695469,27.0986349 C18.8963019,27.0182323 18.6022985,27.0498011 18.3523521,27.1863815 C18.1024058,27.322962 17.9170393,27.5533396 17.8371183,27.8267259 C17.756035,28.1006364 17.7873727,28.3955608 17.9242052,28.6463163 C18.0610378,28.8970719 18.2920984,29.0830113 18.5663191,29.1630391 C19.1356951,29.3278585 19.7367031,29.0004395 19.8987478,28.4360581 L19.8987478,28.4360581 Z M13.274341,20.3682332 C13.357523,20.0876457 13.1975267,19.7927457 12.9169549,19.7095107 C12.6353132,19.6297403 12.341651,19.790144 12.2565676,20.0702265 C12.2173173,20.204901 12.2332983,20.3496608 12.3009807,20.4725303 C12.368663,20.5953998 12.4824773,20.6862684 12.6172834,20.7250644 C12.7517393,20.7656078 12.8968241,20.7507104 13.0202352,20.683689 C13.1436463,20.6166676 13.2351384,20.5030862 13.274341,20.3682332 Z M13.8881128,23.0164421 C13.9374581,22.8509979 13.9185211,22.6726851 13.8355279,22.5212954 C13.7525346,22.3699056 13.6123923,22.2580387 13.4463747,22.2106585 C13.2803429,22.1587186 13.1003578,22.1761888 12.9474143,22.2590898 C12.7944708,22.3419909 12.6815915,22.483264 12.6344867,22.6507318 C12.5334986,22.996911 12.7322653,23.3594119 13.0784446,23.4604 C13.4246239,23.5613881 13.7871247,23.3626214 13.8881128,23.0164421 L13.8881128,23.0164421 Z M15.3331958,25.4032707 C15.4597886,24.9607296 15.2069878,24.4986632 14.7660396,24.366629 C14.3252698,24.2397008 13.8648258,24.4929947 13.7360572,24.9332303 C13.6731949,25.1445159 13.6971815,25.3721466 13.8027026,25.5656888 C13.9082237,25.7592309 14.086567,25.9027048 14.2982189,25.9643225 C14.5098694,26.0276412 14.7380234,26.0040511 14.9322411,25.8987674 C15.1264588,25.7934837 15.2707431,25.6151783 15.3331958,25.4032707 L15.3331958,25.4032707 Z M17.3637482,27.2573499 C17.5071736,26.7608043 17.2220963,26.2417602 16.7261137,26.0964 C16.4882505,26.0262145 16.2321988,26.0540515 16.014975,26.1737122 C15.7977512,26.2933729 15.6373912,26.4949221 15.5696033,26.7334795 C15.499684,26.9707392 15.5270317,27.2260682 15.6456132,27.4431379 C15.7641947,27.6602077 15.9642658,27.8211809 16.2016884,27.8905448 C16.6971956,28.0343686 17.2159717,27.7516926 17.3637482,27.2573499 L17.3637482,27.2573499 Z M28.1263974,25.284512 C28.4081905,25.3681105 28.7044484,25.2076892 28.7884496,24.926016 C28.8689617,24.6449343 28.7091415,24.3512308 28.4293987,24.2661835 C28.1484346,24.185779 27.8549911,24.345974 27.7706762,24.6257894 C27.6883471,24.9057809 27.8471194,25.1997944 28.1263974,25.284512 L28.1263974,25.284512 Z M26.2678787,27.3350425 C26.6128176,27.4368139 26.9749779,27.2398365 27.076992,26.8949692 C27.1277797,26.7286505 27.109968,26.5489299 27.0275219,26.3958157 C26.9450757,26.2427015 26.8048384,26.1289024 26.6380286,26.0797515 C26.2903026,25.9777849 25.9254633,26.1755715 25.8211461,26.5225995 C25.7239214,26.8698863 25.9225419,27.2311042 26.2678787,27.3350425 L26.2678787,27.3350425 Z M23.88216,28.7790155 C24.0941104,28.8421786 24.3225073,28.8181019 24.5166285,28.7121324 C24.7107497,28.6061629 24.8545257,28.4270727 24.9160269,28.2146341 C24.9778376,28.0034272 24.9531437,27.7763113 24.8473858,27.5833238 C24.7416278,27.3903363 24.5634833,27.2473121 24.3522004,27.1857616 C24.067593,27.101797 23.7598103,27.1760467 23.5447911,27.3805416 C23.3297719,27.5850366 23.2401827,27.888709 23.3097709,28.1771686 C23.3793591,28.4656281 23.5975526,28.6950509 23.88216,28.7790155 L23.88216,28.7790155 Z M21.2422753,29.3678147 C21.4793228,29.4401239 21.7354664,29.4143569 21.953362,29.2962823 C22.1712576,29.1782077 22.3327051,28.9776879 22.4015604,28.7396143 C22.5469894,28.2438684 22.2630015,27.7240934 21.7672555,27.5786644 C21.2715096,27.4332354 20.7517347,27.7172233 20.6063057,28.2129692 C20.4643801,28.7073374 20.7486096,29.2234646 21.2422753,29.3678147 L21.2422753,29.3678147 Z" id="Shape"></path>
                <path d="M19.0552278,14.12896 C19.2716572,14.5324067 19.1245962,15.0385187 18.7194846,15.257168 C18.3125905,15.4755498 17.8057064,15.3230624 17.586837,14.9164303 C17.3648581,14.5135385 17.5180236,14.0063166 17.9220252,13.7887772 C18.117239,13.6827702 18.3466916,13.6590711 18.5594511,13.7229407 C18.7722106,13.7868102 18.9506741,13.9329639 19.0552278,14.12896 L19.0552278,14.12896 Z M14.9325238,20.6562509 C14.6957786,20.7878472 14.6083364,21.0850026 14.7360724,21.3238526 C14.7972921,21.4386868 14.9022759,21.5239451 15.0272275,21.5603022 C15.1521791,21.5966594 15.2865164,21.5810363 15.3997895,21.5169743 C15.5158101,21.4572628 15.6026031,21.3529895 15.6402704,21.2280598 C15.6779376,21.1031301 15.6632485,20.9682591 15.5995705,20.8543671 C15.4691768,20.6165741 15.1715791,20.5281861 14.9325238,20.6562509 L14.9325238,20.6562509 Z M14.8492817,18.6495612 C14.5744972,18.8002302 14.4722649,19.1440575 14.6200884,19.4203831 C14.7738088,19.7022964 15.1189861,19.8038518 15.3981246,19.6551259 C15.6739335,19.5041802 15.7793735,19.1517886 15.6300926,18.8781996 C15.5575969,18.7435957 15.4341997,18.643644 15.2874757,18.6006801 C15.1407518,18.5577161 14.9829314,18.5753212 14.8492817,18.6495612 L14.8492817,18.6495612 Z M15.3698223,16.7183444 C15.0532526,16.8907847 14.9334608,17.2852332 15.1006728,17.6045953 C15.2754812,17.9203604 15.6722686,18.0424488 15.9885886,17.8698602 C16.1420747,17.7878549 16.2566076,17.6481292 16.3068983,17.4815348 C16.357189,17.3149404 16.339101,17.1351798 16.2566282,16.9819444 C16.0826468,16.6666045 15.6878035,16.5492387 15.3698223,16.7183444 L15.3698223,16.7183444 Z M16.4319916,15.0479528 C16.2582677,15.1400468 16.1287041,15.2979286 16.0722809,15.4862839 C16.0158578,15.6746392 16.0372833,15.8777509 16.131765,16.0501878 C16.3259966,16.4047991 16.7666248,16.5396513 17.1240109,16.3459747 C17.297189,16.2551104 17.4267657,16.0986775 17.4838031,15.9116115 C17.5408405,15.7245455 17.5205875,15.5224287 17.4275671,15.3503991 C17.3361769,15.1777449 17.1796557,15.0487076 16.9927404,14.9919245 C16.805825,14.9351414 16.6039767,14.9553095 16.4319916,15.0479528 L16.4319916,15.0479528 Z M15.6189937,22.5563907 C15.522726,22.6081909 15.4510852,22.6962368 15.4199402,22.8010257 C15.3887952,22.9058146 15.4007168,23.0186967 15.4530644,23.1146678 C15.5627956,23.3122147 15.8101094,23.3861133 16.0102316,23.281152 C16.2076331,23.1700121 16.2798966,22.9214057 16.1728311,22.721765 C16.0642204,22.5248144 15.8178118,22.4512375 15.6189937,22.5563907 L15.6189937,22.5563907 Z M25.105264,15.7227688 C25.2370167,15.960323 25.5337744,16.0500633 25.7750854,15.9253246 C26.0129647,15.7933999 26.1015332,15.4953755 25.9743115,15.2549482 C25.9128498,15.1400813 25.8080399,15.0545334 25.683189,15.0173283 C25.5583382,14.9801231 25.4237971,14.9943453 25.3094846,15.056832 C25.1940367,15.1180014 25.1076432,15.2225587 25.0693373,15.3474691 C25.0310315,15.4723794 25.0439562,15.6073943 25.105264,15.7227688 L25.105264,15.7227688 Z M23.438757,14.6622644 C23.5891478,14.940848 23.9432042,15.0424033 24.2129086,14.8909027 C24.4975966,14.739957 24.599152,14.3936699 24.4470964,14.1161962 C24.2981276,13.8390087 23.9534212,13.7339365 23.6751646,13.8808985 C23.3963476,14.033207 23.2911399,14.3809354 23.438757,14.6622644 L23.438757,14.6622644 Z M21.5130897,14.1461633 C21.5941992,14.2984923 21.7329368,14.4119925 21.8983158,14.4613143 C22.0636949,14.510636 22.2419383,14.4916705 22.3932362,14.4086535 C22.5467998,14.3271675 22.6615442,14.1878261 22.7120614,14.0214838 C22.7625787,13.8551415 22.7447005,13.6755235 22.6623857,13.5224025 C22.5806526,13.3693658 22.4409331,13.2555226 22.2745412,13.2063874 C22.1081493,13.1572522 21.9290001,13.1769343 21.7772446,13.2610223 C21.62462,13.3431547 21.5109737,13.4826711 21.4614093,13.6487535 C21.4118449,13.8148359 21.4304409,13.9938177 21.5130897,14.1461633 L21.5130897,14.1461633 Z M19.5025153,14.2255208 C19.5947916,14.3983184 19.7519757,14.5273451 19.9394427,14.5841785 C20.1269097,14.6410119 20.3292803,14.6209896 20.5019756,14.5285221 C20.8581212,14.3318989 20.9901609,13.885585 20.7983174,13.5268421 C20.5989164,13.1823256 20.1618362,13.058622 19.8114612,13.2475393 C19.4610862,13.4364567 19.3242536,13.8696063 19.5025153,14.2255208 L19.5025153,14.2255208 Z M26.3572252,17.2250113 C26.4626652,17.4242374 26.7123915,17.4963806 26.9055132,17.3898307 C27.0015188,17.3399815 27.0733671,17.2535251 27.1048056,17.1500184 C27.1362441,17.0465117 27.1246162,16.9347007 27.0725524,16.8398779 C26.9659669,16.6395926 26.7183218,16.5619872 26.5164951,16.6656244 C26.3261482,16.7760589 26.2467907,17.0302248 26.3572252,17.2250113 L26.3572252,17.2250113 Z M24.9421094,25.0320109 C24.8380194,24.8349563 24.6591218,24.6879855 24.4456118,24.6241203 C24.2321019,24.5602552 24.001885,24.5848516 23.8066871,24.6923831 C23.6115054,24.796584 23.4662259,24.9746611 23.403338,25.1867904 C23.3404501,25.3989196 23.3652004,25.6274038 23.4720539,25.8211461 C23.691813,26.2251478 24.1990349,26.3727638 24.6052564,26.159664 C25.0087031,25.9365751 25.1590939,25.4276884 24.9421094,25.0320109 Z M17.4192429,24.2228977 C17.2889669,23.9873229 16.9940358,23.8994605 16.7560808,24.0253364 C16.6416166,24.0866082 16.5562623,24.1909378 16.518879,24.3152712 C16.4814957,24.4396045 16.4951608,24.5737063 16.5568547,24.6879435 C16.6172664,24.8034275 16.7218957,24.8895029 16.8468587,24.9265213 C16.9718217,24.9635396 17.1064518,24.948341 17.2200168,24.8843949 C17.3342949,24.8232317 17.4195316,24.7191014 17.4569103,24.5949916 C17.494289,24.4708819 17.4807359,24.3369986 17.4192429,24.2228977 L17.4192429,24.2228977 Z M19.0879697,25.283957 C18.9370131,25.0074728 18.590962,24.9050218 18.3138181,25.0547638 C18.1790358,25.1254559 18.0784781,25.2475401 18.0349174,25.3933692 C17.9913567,25.5391982 18.0084784,25.6964346 18.082405,25.8294703 C18.2266913,26.1086088 18.5768631,26.2151587 18.8543368,26.0653229 C19.1318778,25.9118493 19.2357097,25.5645921 19.0879697,25.283957 Z M21.0180766,25.8000581 C20.8499276,25.4831831 20.4487006,25.3705288 20.1268311,25.5347932 C19.8109628,25.7085973 19.693288,26.1038959 19.8626762,26.4221541 C20.0369297,26.7423587 20.433717,26.8605625 20.7511469,26.6896387 C20.9056652,26.6082181 21.0209824,26.4681189 21.0711794,26.3008303 C21.1213764,26.1335417 21.1022419,25.9530986 21.0180766,25.8000581 L21.0180766,25.8000581 Z M23.0258762,25.7195907 C22.8312984,25.3620783 22.3845944,25.2287116 22.025861,25.421029 C21.6662551,25.611376 21.541392,26.0569987 21.7367334,26.4193793 C21.8271455,26.5918497 21.9834404,26.7204456 22.1700968,26.7759409 C22.3567533,26.8314361 22.557917,26.8091172 22.7278694,26.7140564 C23.0885852,26.5253743 23.2167781,26.075312 23.0258762,25.7195907 Z M27.5875435,19.2966299 C27.8289456,19.157893 27.9210669,18.8582214 27.7950939,18.6234787 C27.7332093,18.5091873 27.6284544,18.424163 27.5038772,18.3871124 C27.3793,18.3500619 27.2451066,18.3640206 27.1308219,18.4259174 C27.014541,18.4865512 26.92765,18.5915451 26.889833,18.7171141 C26.8520161,18.8426831 26.8664738,18.9781997 26.9299309,19.0929642 C27.057114,19.328586 27.3494503,19.4191239 27.5875435,19.2966299 L27.5875435,19.2966299 Z M27.6796648,21.2999899 C27.9582484,21.1484892 28.0581389,20.8005372 27.9066383,20.5241734 C27.8352562,20.3906763 27.7136046,20.2911401 27.5686172,20.2476022 C27.4236299,20.2040644 27.2672684,20.2201168 27.1341515,20.2922054 C26.8566367,20.4450687 26.7521174,20.7916589 26.8988539,21.0724614 C27.0464699,21.3460505 27.4049659,21.4470509 27.6796648,21.2999899 L27.6796648,21.2999899 Z M27.1552395,23.2295419 C27.4804387,23.0547334 27.593648,22.6618307 27.4277187,22.3405162 C27.255083,22.0226229 26.8581079,21.9038527 26.539248,22.0746964 C26.2208904,22.2482586 26.1015906,22.6457597 26.2717633,22.9659419 C26.4446381,23.2805991 26.8382108,23.3980281 27.1552395,23.2295419 L27.1552395,23.2295419 Z M26.1002846,24.8927191 C26.4576707,24.7073667 26.5897482,24.2528648 26.3960715,23.8982534 C26.1996202,23.5419772 25.7556623,23.4037953 25.399941,23.6002467 C25.2281072,23.6930457 25.1002092,23.8503443 25.0444175,24.0374962 C24.9886258,24.224648 25.0095169,24.4263019 25.1024892,24.5980421 C25.1944493,24.7707333 25.3519481,24.8992264 25.5395864,24.9546413 C25.7272246,25.0100561 25.9292605,24.9877438 26.1002846,24.8927191 L26.1002846,24.8927191 Z" id="Shape"></path>
                <path d="M40.3785254,22.1174274 C39.1968309,22.1158958 38.239948,21.1570256 38.2408655,19.9753305 C38.2399796,19.4076863 38.4653102,18.8630843 38.867008,18.4620113 C39.2687059,18.0609383 39.8136581,17.8364559 40.3813002,17.8382178 C40.9489491,17.8371941 41.4936381,18.062272 41.8949751,18.4637131 C42.2963121,18.8651542 42.5212487,19.4099017 42.5200719,19.9775503 C42.5194545,21.159768 41.5607432,22.1177339 40.3785254,22.1174274 L40.3785254,22.1174274 Z M31.9777322,3.66209768 C32.0436142,3.35595538 31.9847265,3.03617982 31.8141104,2.77358943 C31.6434944,2.51099904 31.3752302,2.3272642 31.0687284,2.26307537 C30.7626557,2.19646111 30.4426548,2.25465431 30.1796306,2.42476071 C29.9166063,2.5948671 29.7322772,2.86284056 29.6674863,3.16930442 C29.5314052,3.8072612 29.9382558,4.43474289 30.5762126,4.57082399 C31.2141694,4.7069051 31.8416511,4.30005447 31.9777322,3.66209768 L31.9777322,3.66209768 Z M36.1942223,6.68101136 C36.2541132,6.30643799 36.1624962,5.92342795 35.9395887,5.61650065 C35.7166812,5.30957334 35.3808056,5.10395744 35.00608,5.04502652 C34.2350341,4.94062616 33.5217487,5.47110921 33.3998781,6.23958742 C33.2780076,7.00806563 33.7921677,7.73320541 34.5576825,7.87248336 C35.3383337,7.99421506 36.0702932,7.4613168 36.1942223,6.68101136 L36.1942223,6.68101136 Z M41.6981903,15.130085 C41.72614,14.6092329 41.5456289,14.0986753 41.1965118,13.7111377 C40.8473948,13.3236 40.3583854,13.090956 39.8374517,13.0645709 C39.3164283,13.0358576 38.8054344,13.2159078 38.4174955,13.5648966 C38.0295565,13.9138855 37.7966431,14.4030523 37.7702728,14.9241996 C37.7269622,15.629709 38.0655743,16.3041988 38.6572247,16.6909406 C39.248875,17.0776825 40.0025554,17.1171873 40.6313954,16.7944186 C41.2602354,16.4716499 41.6675063,15.8362563 41.6981903,15.130085 L41.6981903,15.130085 Z M22.121312,0.85794863 C22.121312,0.381248842 21.7356235,0 21.2605886,0 C20.7984574,0.0166190177 20.4324033,0.396073599 20.4324033,0.858503578 C20.4324033,1.32093356 20.7984574,1.70038814 21.2605886,1.71700716 C21.7356235,1.71700716 22.121312,1.33353852 22.121312,0.85794863 Z M30.5776,35.3845541 C29.9390302,35.5203287 29.5314342,36.1480588 29.6672088,36.7866286 C29.8029834,37.4251983 30.4307136,37.8327944 31.0692833,37.6970197 C31.7078531,37.5612451 32.1154491,36.933515 31.9796745,36.2949452 C31.8438999,35.6563754 31.2161697,35.2487794 30.5776,35.3845541 L30.5776,35.3845541 Z M34.5576825,32.084837 C34.0487765,32.1599421 33.6193718,32.5024834 33.4330473,32.9819719 C33.2467227,33.4614604 33.3321676,34.0040672 33.6568321,34.4030897 C33.9814967,34.8021122 34.495391,34.9961112 35.0027503,34.911184 C35.7767164,34.7816293 36.3018664,34.052799 36.1797977,33.277617 C36.057729,32.5024349 35.334008,31.9702657 34.5576825,32.084837 L34.5576825,32.084837 Z M37.6315359,27.7640168 C36.6523037,27.8669971 35.9419611,28.7443037 36.0449414,29.723536 C36.1479217,30.7027682 37.0252283,31.4131108 38.0044606,31.3101305 C38.4751441,31.2616133 38.9071305,31.0276552 39.2049517,30.6599605 C39.5027729,30.2922658 39.6419086,29.8211078 39.5916101,29.3506113 C39.4882343,28.3713574 38.6108432,27.6611476 37.6315359,27.7640168 L37.6315359,27.7640168 Z M39.6282366,22.9631671 C38.5452063,23.0222813 37.7142145,23.9465984 37.7702728,25.0297911 C37.7964972,25.5509914 38.0293676,26.040247 38.4173405,26.3892663 C38.8053133,26.7382857 39.316391,26.9182837 39.8374517,26.8894198 C40.3582869,26.8628922 40.8471547,26.6301865 41.1961533,26.2426648 C41.5451518,25.8551432 41.7255876,25.3446663 41.6976353,24.8239056 C41.6388169,23.7392013 40.7130711,22.9067997 39.6282366,22.9631671 Z M21.2605886,38.2386484 C20.7947989,38.2504899 20.4233625,38.6314892 20.4233625,39.0974294 C20.4233625,39.5633696 20.7947989,39.9443689 21.2605886,39.9562105 C21.7348803,39.9562105 22.1193697,39.5717211 22.1193697,39.0974294 C22.1193697,38.6231377 21.7348803,38.2386484 21.2605886,38.2386484 Z M2.14154189,22.1174273 C3.32267559,22.1149783 4.2787041,21.1564666 4.27809186,19.9753305 C4.27897448,19.408361 4.05417663,18.8643504 3.65332024,18.4633898 C3.25246384,18.0624293 2.7085116,17.8374902 2.14154189,17.8382264 C1.5736326,17.8374913 1.02874727,18.0626522 0.627018298,18.4640688 C0.22528933,18.8654855 -0.000295189897,19.4101955 -2.89339584e-07,19.9781052 C0.00244590165,21.159472 0.96017321,22.1162066 2.14154189,22.1174273 Z M11.9435772,4.56999157 C12.5818393,4.43436837 12.9893101,3.80701234 12.8536909,3.16874947 C12.7888733,2.86235015 12.604675,2.59439093 12.3418248,2.42412152 C12.0789747,2.25385212 11.7591266,2.1952995 11.4530038,2.26141052 C11.0406155,2.34904303 10.7063044,2.65002534 10.5760022,3.05098033 C10.4457,3.45193532 10.5392028,3.89194839 10.8212889,4.20527087 C11.1033751,4.51859334 11.531189,4.65762409 11.9435772,4.56999157 L11.9435772,4.56999157 Z M7.96460462,7.87137346 C8.74569227,7.74720592 9.27862064,7.01387065 9.15552167,6.23261389 C9.09620338,5.85752937 8.89008357,5.5214597 8.58264092,5.29855597 C8.27519827,5.07565224 7.89170005,4.98423386 7.51676209,5.04447157 C7.14213816,5.10353384 6.80640064,5.30920503 6.5836083,5.6161171 C6.36081596,5.92302917 6.26927382,6.30596566 6.32917473,6.68045641 C6.45197963,7.46089629 7.18414588,7.99405841 7.96460462,7.87137346 L7.96460462,7.87137346 Z M4.88853136,12.1910838 C5.84905357,12.0667029 6.53491894,11.1987126 6.43381754,10.2354618 C6.33271614,9.27221107 5.48157687,8.56554257 4.51616168,8.64330525 C4.04525757,8.69194523 3.61313757,8.92619827 3.31538603,9.29424793 C3.01763448,9.66229758 2.87879085,10.1338107 2.92956715,10.6044892 C2.97865292,11.0747843 3.21270531,11.5062683 3.58015504,11.8038714 C3.94760477,12.1014744 4.41829998,12.2407761 4.88853136,12.1910838 L4.88853136,12.1910838 Z M2.89183073,16.9913785 C3.97642136,16.9337427 4.80923262,16.0082865 4.75256926,14.9236446 C4.72606506,14.4019967 4.49274097,13.9124253 4.10424414,13.563299 C3.7157473,13.2141726 3.204121,13.0342872 2.68261558,13.063461 C2.16183749,13.0904214 1.67314667,13.3233331 1.32422321,13.7108755 C0.975299749,14.0984179 0.794776975,14.6087884 0.822431999,15.1295301 C0.880064708,16.2149615 1.80636481,17.0483584 2.89183073,16.9913785 L2.89183073,16.9913785 Z M10.544,36.2935578 C10.4562683,36.7062435 10.5953661,37.1343851 10.9088966,37.4167058 C11.2224271,37.6990265 11.6627575,37.792635 12.0640196,37.66227 C12.4652817,37.531905 12.7665142,37.197372 12.8542459,36.7846863 C12.989193,36.146673 12.5819421,35.519904 11.9441322,35.3839991 C11.3066054,35.2500182 10.6807145,35.6566116 10.544,36.2935578 L10.544,36.2935578 Z M6.32972968,33.2735343 C6.26920713,33.648175 6.36049172,34.0314885 6.58337952,34.3386362 C6.80626732,34.645784 7.14237677,34.8514355 7.51731704,34.9100741 C8.0886005,35.0010159 8.65840758,34.7388363 8.96099512,34.2458089 C9.26358266,33.7527815 9.23934926,33.1260192 8.89959674,32.6578275 C8.55984423,32.1896359 7.97149447,31.9722357 7.40893846,32.1070168 C6.84638245,32.2417979 6.4204282,32.7022121 6.32972968,33.2735343 L6.32972968,33.2735343 Z M2.92956715,29.3517212 C2.87895738,29.8220428 3.01784668,30.2931443 3.31550448,30.6607902 C3.61316228,31.0284361 4.04504938,31.2623173 4.51560673,31.3106854 C4.9859897,31.3610011 5.45705662,31.2220312 5.82480808,30.9244565 C6.19255954,30.6268819 6.42675165,30.1951751 6.47568083,29.7246459 C6.52506897,29.2541794 6.38553772,28.7833632 6.08778372,28.415776 C5.79002972,28.0481887 5.35844463,27.8139427 4.88797641,27.7645718 C4.41768891,27.7147393 3.94689965,27.8540758 3.57948727,28.151837 C3.21207489,28.4495983 2.97823618,28.8813119 2.92956715,29.3517212 L2.92956715,29.3517212 Z M0.822431999,24.8233507 C0.79447969,25.3441114 0.974915503,25.8545882 1.32391405,26.2421099 C1.6729126,26.6296315 2.16178037,26.8623373 2.68261558,26.8888648 C3.20414146,26.9184938 3.71593825,26.7388406 4.10452112,26.3897411 C4.49310399,26.0406415 4.72636067,25.5509451 4.75256926,25.0292362 C4.80828656,23.9451277 3.9758226,23.0205539 2.89183073,22.9626122 C1.8073267,22.9071776 0.882143078,23.7390737 0.822431999,24.8233507 L0.822431999,24.8233507 Z M25.969872,37.5549532 C25.4778407,37.6873905 25.1857171,38.1929603 25.3166989,38.685381 C25.4493328,39.1771183 25.9552496,39.4684489 26.4471267,39.3363343 C26.6839959,39.2738568 26.8862256,39.1196076 27.0091083,38.9076871 C27.1319909,38.6957666 27.1654054,38.4436294 27.1019646,38.2070164 C26.9693203,37.7144029 26.4625386,37.4225066 25.969872,37.5549532 L25.969872,37.5549532 Z M16.5501953,37.5549532 C16.0630288,37.435781 15.569922,37.7277291 15.4401327,38.2121751 C15.3103435,38.6966211 15.5914464,39.1959899 16.0729406,39.3363343 C16.3939038,39.4298876 16.7403633,39.3424309 16.9784707,39.1077515 C17.2165781,38.8730721 17.3090496,38.5279172 17.2201603,38.2056312 C17.131271,37.8833452 16.8749396,37.6343932 16.5501953,37.5549532 L16.5501953,37.5549532 Z M27.1025195,1.74863916 C27.1656323,1.51196178 27.132006,1.25989991 27.0090568,1.0480441 C26.8861076,0.836188291 26.6839349,0.6819413 26.4471267,0.619321262 C25.9645766,0.512108016 25.4832372,0.804146354 25.3554536,1.28166142 C25.2276699,1.75917649 25.4988233,2.25258284 25.9704269,2.40070231 C26.2070295,2.46461492 26.4593375,2.43179035 26.6717114,2.30946719 C26.8840852,2.18714402 27.0390813,1.98536938 27.1025195,1.74863916 L27.1025195,1.74863916 Z M17.2050332,1.26971958 C17.1414975,1.03313242 16.9863992,0.831567307 16.7739883,0.709535124 C16.5615773,0.587502942 16.3093269,0.555042263 16.0729406,0.619321262 C15.8366681,0.682048285 15.6350428,0.836167376 15.5125157,1.04770105 C15.3899886,1.25923472 15.3566204,1.51081372 15.4197676,1.74697431 C15.5050209,2.06588131 15.7539331,2.31508141 16.0727413,2.40070335 C16.3915496,2.48632528 16.7318193,2.39536104 16.9653742,2.16207598 C17.1989291,1.92879091 17.2902866,1.58862658 17.2050332,1.26971958 L17.2050332,1.26971958 Z" id="Shape"></path>
                <path d="M35.6298408,15.6012353 C34.7819336,15.9657057 33.7990714,15.5742499 33.4339141,14.7266383 C33.2581362,14.3196045 33.2515661,13.8593513 33.4156539,13.4474659 C33.5797417,13.0355805 33.9009966,12.705927 34.3085111,12.5312665 C35.1511866,12.1896141 36.1123924,12.584257 36.4718769,13.419481 C36.8313615,14.2547051 36.4572361,15.2240811 35.6298408,15.6012353 L35.6298408,15.6012353 Z M23.8988084,4.96788884 C23.8518003,4.72780001 23.7109463,4.51638807 23.5074835,4.38053783 C23.3040206,4.24468759 23.0547658,4.19562745 22.8149962,4.24423747 C22.5747315,4.29098034 22.3630882,4.43175099 22.2270983,4.63526693 C22.0911084,4.83878288 22.0420373,5.08818474 22.0907899,5.32804968 C22.2046753,5.81179628 22.6813613,6.11833152 23.1687567,6.02124142 C23.656152,5.92415131 23.978987,5.45834991 23.8988084,4.96788884 L23.8988084,4.96788884 Z M27.8561381,5.8286122 C27.7834514,5.54138492 27.5993181,5.29495588 27.3444718,5.14383938 C27.0896254,4.99272288 26.7850712,4.94937448 26.4981819,5.02338357 C26.210669,5.09569414 25.9638759,5.27970154 25.8125109,5.5346155 C25.661146,5.78952945 25.6177142,6.09429042 25.6918433,6.38133978 C25.7905786,6.7679538 26.0880699,7.07252525 26.4722551,7.18032501 C26.8564403,7.28812477 27.2689525,7.18277549 27.5544025,6.90396122 C27.8398524,6.62514695 27.9548733,6.21522622 27.8561381,5.8286122 L27.8561381,5.8286122 Z M31.504917,7.5894602 C31.39573,7.23661428 31.1504044,6.94184278 30.82325,6.77040178 C30.4960956,6.59896078 30.1140994,6.56499251 29.7618273,6.67601683 C29.4088962,6.78536233 29.1140145,7.03071067 28.9423117,7.3578727 C28.7706089,7.68503474 28.7362124,8.06709217 28.8467191,8.41966146 C29.0910214,9.13369851 29.8595257,9.52330913 30.5798842,9.2983287 C31.3002427,9.07334826 31.7104123,8.31561736 31.504917,7.5894602 L31.504917,7.5894602 Z M34.415061,10.1832842 C34.2741408,9.80122847 33.9869813,9.49095288 33.6169565,9.32093305 C33.2469317,9.15091322 32.8244601,9.13512587 32.4427781,9.27705515 C32.0601372,9.41727482 31.7491838,9.70425263 31.5787776,10.0744382 C31.4083714,10.4446237 31.3925742,10.8674697 31.5348842,11.2493381 C31.8292668,12.044677 32.7126607,12.4507822 33.5079995,12.1563996 C34.3033384,11.8620169 34.7094437,10.9786231 34.415061,10.1832842 L34.415061,10.1832842 Z M15.9663907,6.00508547 C15.8959048,5.84144098 15.7631714,5.71258942 15.5975075,5.64699026 C15.4318436,5.58139109 15.2468799,5.58444182 15.0834695,5.65546862 C14.7435732,5.8021236 14.5869202,6.1965513 14.7335751,6.53644757 C14.8802301,6.87634384 15.2746578,7.03299686 15.6145541,6.88634189 C15.9547368,6.73983578 16.1134518,6.34471325 15.9663907,6.00508547 L15.9663907,6.00508547 Z M32.7047132,28.1436008 C32.3021903,28.4429502 32.2124902,29.0090052 32.5027435,29.4181357 C32.7929969,29.8272661 33.3568994,29.9296295 33.772432,29.6486181 C33.9720614,29.5070185 34.1071367,29.2917986 34.1478459,29.0504584 C34.1885552,28.8091182 34.1315517,28.5614984 33.9894164,28.3622501 C33.848095,28.1628332 33.6333179,28.0277518 33.3923675,27.9867434 C33.1514171,27.945735 32.9040464,28.0021615 32.7047132,28.1436008 L32.7047132,28.1436008 Z M34.5382593,24.546432 C34.1925963,24.7558035 33.9869648,25.13554 34.0005346,25.5394401 C34.0141044,25.9433401 34.2447594,26.3084187 34.6036957,26.4941178 C34.9626319,26.679817 35.3938762,26.6571783 35.7313962,26.4349179 C36.2398115,26.100121 36.3865719,25.4198952 36.0614247,24.9052552 C35.7362774,24.3906151 35.0589409,24.23105 34.5382593,24.546432 Z M35.4056421,20.4986459 C34.7352846,20.876057 34.4971566,21.725024 34.8734475,22.3960109 C35.054305,22.7177937 35.35576,22.9543955 35.7113008,23.0536138 C36.0668417,23.1528321 36.4472494,23.1065129 36.7685928,22.9248758 C37.0911879,22.7451071 37.328797,22.4441392 37.4287931,22.0886323 C37.5287891,21.7331254 37.482919,21.3524213 37.3013423,21.0308404 C37.1208345,20.7085626 36.8195284,20.4713378 36.4638912,20.371497 C36.1082539,20.2716562 35.727507,20.3174031 35.4056421,20.4986459 L35.4056421,20.4986459 Z M35.3529221,16.4397608 C34.5947556,16.816415 34.2844598,17.7356353 34.6592378,18.4947309 C34.8392437,18.860571 35.1576859,19.1395418 35.5440286,19.2698504 C35.9303714,19.4001591 36.3527252,19.3710497 36.7175376,19.1889701 C37.0828746,19.0091936 37.361482,18.6912067 37.4916783,18.3054093 C37.6218745,17.9196118 37.5929188,17.4978307 37.4112218,17.133445 C37.0338702,16.3741054 36.1129151,16.0637269 35.3529221,16.4397608 L35.3529221,16.4397608 Z M26.9071781,33.0709785 C26.6872046,33.1658476 26.5345528,33.3708648 26.5067252,33.6088019 C26.4788975,33.8467391 26.5801217,34.081448 26.7722675,34.224516 C26.9644133,34.3675841 27.2182892,34.3972758 27.4382627,34.3024067 C27.7784454,34.1559006 27.9371604,33.761333 27.7906543,33.4200404 C27.6429401,33.0798288 27.2475373,32.923605 26.9071781,33.0709785 L26.9071781,33.0709785 Z M8.21488588,27.424389 C9.06141607,27.0575387 9.45063322,26.0741879 9.08448841,25.2273524 C8.90976738,24.8207716 8.58045948,24.5004136 8.16921999,24.3369589 C7.7579805,24.1735042 7.29860525,24.1803857 6.89244631,24.356085 C6.48493137,24.5307321 6.16370411,24.8604199 5.99970799,25.2723365 C5.83571187,25.6842531 5.84243919,26.1445092 6.0184042,26.5514568 C6.38443426,27.398494 7.36727958,27.7890993 8.21488588,27.424389 L8.21488588,27.424389 Z M9.81646399,11.8126097 C10.0158617,11.671568 10.151045,11.457075 10.1922604,11.2163396 C10.2334757,10.9756043 10.1773453,10.7283572 10.0362231,10.5290164 C9.89582924,10.3286356 9.68120338,10.1926434 9.44005761,10.1512713 C9.19891184,10.1098993 8.95123084,10.1665761 8.75207494,10.3087023 C8.55151376,10.4494965 8.41548879,10.6645598 8.37422363,10.9061068 C8.33295848,11.1476539 8.38987102,11.395678 8.53231578,11.5950703 C8.8272811,12.0090652 9.40160447,12.1063576 9.81646399,11.8126097 L9.81646399,11.8126097 Z M7.98458273,15.4092236 C8.23544658,15.2506094 8.41296105,14.9987694 8.47801847,14.7091858 C8.5430759,14.4196022 8.49033855,14.1160342 8.33142483,13.86536 C8.00118297,13.344482 7.31121399,13.1899409 6.79033599,13.5201827 C6.26945799,13.8504246 6.11491686,14.5403936 6.44515873,15.0612716 C6.77417552,15.5824548 7.46339798,15.738238 7.98458273,15.4092236 L7.98458273,15.4092236 Z M7.11442525,19.4575646 C7.56321303,19.2219371 7.84849633,18.7610353 7.85922852,18.2542655 C7.86996071,17.7474957 7.60444606,17.2749293 7.16603625,17.0205131 C6.72762645,16.7660968 6.18559183,16.7700292 5.75091957,17.0307798 C5.08360466,17.4086391 4.84766758,18.2550954 5.22330666,18.9236626 C5.59894575,19.5922299 6.44461307,19.8309793 7.11442525,19.4575646 L7.11442525,19.4575646 Z M7.16825515,23.5175595 C7.92802292,23.1408686 8.23858996,22.2196025 7.86193936,21.4598147 C7.68206296,21.0937133 7.36349001,20.8145594 6.97693701,20.6843191 C6.59038402,20.5540789 6.16783415,20.5835284 5.80308462,20.7661305 C5.43815123,20.9464949 5.1598801,21.2645247 5.02956113,21.6501731 C4.89924217,22.0358215 4.92756466,22.457456 5.10829052,22.8222105 C5.48549271,23.5826413 6.40735823,23.8938206 7.16825515,23.5175595 L7.16825515,23.5175595 Z M18.6223688,34.9905414 C18.6701965,35.2307445 18.8114888,35.4421086 19.015161,35.5781329 C19.2188333,35.7141572 19.4682004,35.7636986 19.7084008,35.7158576 C20.2079648,35.6141671 20.5310996,35.1274795 20.4309423,34.6276058 C20.3294862,34.1291643 19.8444473,33.806301 19.3454652,33.9050644 C18.8464308,34.0057135 18.5229858,34.4912533 18.6223688,34.9905414 L18.6223688,34.9905414 Z M14.6672589,34.1275983 C14.7397095,34.4149078 14.923657,34.6615059 15.1784037,34.8128333 C15.4331504,34.9641608 15.7376958,35.0077427 16.0246602,34.9339368 C16.6220072,34.7813053 16.9825203,34.1733276 16.8298888,33.5759806 C16.6772573,32.9786336 16.0692796,32.6181204 15.4719326,32.770752 C15.185294,32.8439693 14.9394822,33.0280574 14.7885757,33.282517 C14.6376692,33.5369766 14.5940301,33.8409626 14.6672589,34.1275983 L14.6672589,34.1275983 Z M11.0173701,32.3661953 C11.1257982,32.7193102 11.3708297,33.0144598 11.6979688,33.186002 C12.025108,33.3575442 12.40723,33.3912556 12.7593499,33.2796387 C13.1123622,33.1708896 13.407491,32.9259591 13.5794399,32.5990376 C13.7513887,32.2721161 13.7859827,31.8901538 13.675568,31.5376589 C13.4453381,30.8035896 12.664144,30.3946174 11.9297036,30.6236606 C11.5771903,30.7330857 11.2827837,30.9784198 11.1115781,31.3054183 C10.9403724,31.6324169 10.9064712,32.014143 11.0173701,32.3661953 L11.0173701,32.3661953 Z M8.1061162,29.7707065 C8.24630895,30.1533332 8.53334896,30.4642248 8.90359314,30.6344496 C9.27383733,30.8046744 9.69669135,30.8201663 10.0783991,30.6774905 C10.8560413,30.3719363 11.2464723,29.5005321 10.9568802,28.7168057 C10.6672882,27.9330793 9.80404811,27.5249147 9.01456504,27.7984235 C8.21978599,28.0929637 7.8133955,28.9752555 8.1061162,29.7707065 L8.1061162,29.7707065 Z M30.071488,31.1242231 C29.7743735,31.3752385 29.7301958,31.8167923 29.9716901,32.1216958 C30.2131845,32.4265993 30.6531205,32.4847179 30.9655082,32.2529861 C31.1765591,32.0964266 31.2856076,31.8373602 31.2500513,31.5769968 C31.2144951,31.3166334 31.0399768,31.0962919 30.794676,31.0020536 C30.5493752,30.9078154 30.2722202,30.9546357 30.071488,31.1242231 Z M23.3183334,34.035477 C22.9252347,34.0948399 22.6539398,34.4606169 22.711221,34.8540244 C22.738788,35.0430153 22.8403948,35.2132803 22.993636,35.3272742 C23.1468772,35.4412682 23.339167,35.4896287 23.5281035,35.4616917 C23.717434,35.4345158 23.8881616,35.3330985 24.0025907,35.1798322 C24.1170197,35.026566 24.1657387,34.8340567 24.1379907,34.6448092 C24.1102909,34.4552227 24.0083126,34.2844421 23.8545473,34.1701332 C23.7007819,34.0558242 23.507861,34.0073771 23.3183334,34.035477 L23.3183334,34.035477 Z M19.8127309,5.10274105 C19.7849203,4.91336114 19.6828215,4.74285858 19.5290081,4.62893044 C19.3751947,4.5150023 19.1823367,4.46703313 18.9930737,4.49562863 C18.7386023,4.53310044 18.5234521,4.70348467 18.428668,4.94259921 C18.3338838,5.18171376 18.3738658,5.45323145 18.533553,5.65487417 C18.6932402,5.8565169 18.9483724,5.95765035 19.2028438,5.92017852 C19.596908,5.86272976 19.8698917,5.49684714 19.8127309,5.10274105 L19.8127309,5.10274105 Z M12.568448,7.8203183 C12.3207714,7.50873824 11.8678558,7.45590635 11.5551141,7.70211452 C11.326255,7.88313945 11.2289813,8.18420317 11.3086533,8.46491453 C11.3883254,8.74562589 11.6292523,8.95070085 11.9190858,8.98450947 C12.2089194,9.0183181 12.4905789,8.87420201 12.6327218,8.61936501 C12.7748647,8.36452801 12.749497,8.04915836 12.568448,7.8203183 L12.568448,7.8203183 Z" id="Shape"></path>
            </g>
        </g>
    </g>
</svg>