<?xml version="1.0" encoding="UTF-8"?>
<svg width="46px" height="43px" viewBox="0 0 46 43" version="1.1" xmlns="http://www.w3.org/2000/svg" xmlns:xlink="http://www.w3.org/1999/xlink">
    <!-- Generator: Sketch 53.2 (72643) - https://sketchapp.com -->
    <title>trust</title>
    <desc>Created with Sketch.</desc>
    <g id="Page-1" stroke="none" stroke-width="1" fill="none" fill-rule="evenodd">
        <g id="1.-home" transform="translate(-935.000000, -4618.000000)" stroke="#DF3940" stroke-width="2">
            <g id="advantage" transform="translate(0.000000, 4191.000000)">
                <g id="cards" transform="translate(152.000000, 426.000000)">
                    <g id="trust" transform="translate(785.000000, 3.000000)">
                        <path d="M34.989,26.844 C35.5214066,27.3758965 36.2485972,27.6662635 37.000936,27.6473652 C37.7532747,27.628467 38.4649698,27.3019562 38.97,26.744 L38.97,26.744 C39.9431468,25.6688927 39.913822,24.022764 38.903,22.983 L28.887,12.71" id="Path"></path>
                        <path d="M24.994,32.885 L26.288,34.179 C26.8176825,34.7086133 27.1152609,35.4269647 27.1152609,36.176 C27.1152609,36.9250353 26.8176825,37.6433867 26.288,38.173 L26.288,38.173 C25.9323726,38.5295235 25.487561,38.7840469 25,38.91" id="Path" stroke-linecap="square"></path>
                        <path d="M33.011,24.866 L35.768,27.624 C36.3015915,28.1572224 36.6013911,28.8806487 36.6013911,29.635 C36.6013911,30.3893513 36.3015915,31.1127776 35.768,31.646 L35.768,31.646 C35.2347776,32.1795915 34.5113513,32.4793911 33.757,32.4793911 C33.0026487,32.4793911 32.2792224,32.1795915 31.746,31.646 L28.99,28.889" id="Path" stroke-linecap="square"></path>
                        <path d="M31.2,31.1 C31.7296825,31.6296133 32.0272609,32.3479647 32.0272609,33.097 C32.0272609,33.8460353 31.7296825,34.5643867 31.2,35.094 L31.2,35.094 C30.0966727,36.1959111 28.3093273,36.1959111 27.206,35.094" id="Path" stroke-linecap="square"></path>
                        <rect id="Rectangle" stroke-linecap="square" transform="translate(8.348996, 28.615793) rotate(-45.000000) translate(-8.348996, -28.615793) " x="4.97749576" y="25.7717931" width="6.743" height="5.688" rx="2.844"></rect>
                        <rect id="Rectangle" stroke-linecap="square" transform="translate(16.984654, 35.984889) rotate(-45.000000) translate(-16.984654, -35.984889) " x="13.891154" y="33.1608889" width="6.187" height="5.648" rx="2.824"></rect>
                        <path d="M6.7,26.243 L6.28,26.663 C5.74759341,27.1948965 5.02040277,27.4852635 4.26806405,27.4663652 C3.51572533,27.447467 2.80403024,27.1209562 2.299,26.563 L2.299,26.563 C1.32454621,25.4879395 1.3529986,23.8407648 2.364,22.8 L2.784,22.37 C3.83845784,21.2923805 5.56341003,21.2629627 6.654,22.304 L6.654,22.304 C7.19049899,22.8158093 7.49786369,23.5223919 7.50652207,24.2638128 C7.51518045,25.0052337 7.2244004,25.7188014 6.7,26.243 L6.7,26.243 Z" id="Path" stroke-linecap="square"></path>
                        <path d="M39,17 L39,13.625 L42,10.573 L31.558,0.131 L29.69,2 L25,2 C22.6657415,1.99947934 20.4254085,2.91932739 18.765,4.56 L12.1,11.491 C11.2254393,12.398365 11.1764968,13.8193949 11.986557,14.7847809 C12.7966172,15.7501669 14.2045584,15.9487184 15.25,15.245 L22.35,10.67 C23.5896882,12.0762213 25.3798413,12.8735219 27.2543856,12.8543214 C29.1289299,12.8351209 30.9023761,12.0013192 32.113,10.57" id="Path" stroke-linecap="square"></path>
                        <polyline id="Path" stroke-linecap="square" points="3 17 3 13.625 0 10.573 10.442 0.131 12.31 2 16 2"></polyline>
                        <rect id="Rectangle" stroke-linecap="square" transform="translate(12.640285, 32.342278) rotate(-45.000000) translate(-12.640285, -32.342278) " x="9.66678503" y="29.5182778" width="5.947" height="5.648" rx="2.824"></rect>
                    </g>
                </g>
            </g>
        </g>
    </g>
</svg>