<?xml version="1.0" encoding="UTF-8"?>
<svg width="43px" height="24px" viewBox="0 0 43 24" version="1.1" xmlns="http://www.w3.org/2000/svg" xmlns:xlink="http://www.w3.org/1999/xlink">
    <!-- Generator: Sketch 59.1 (86144) - https://sketch.com -->
    <title>venturebeat</title>
    <desc>Created with Sketch.</desc>
    <g id="Page-1" stroke="none" stroke-width="1" fill="none" fill-rule="evenodd">
        <g id="1.-home" transform="translate(-1122.000000, -577.000000)" fill="#ACA9B8" fill-rule="nonzero">
            <g id="venturebeat" transform="translate(1122.000000, 577.000000)">
                <path d="M33.2712,0 C35.6856,0.0696 38.6112,0.1728 40.3752,2.0064 C41.3976,3.0936 41.976,4.8624 41.976,6.4248 C41.976,8.5344 41.016,9.7224 40.4784,10.2336 C39.7992,10.9128 38.9136,11.3544 38.0664,11.7624 C39.0504,12.072 40.0728,12.3744 40.9872,13.26 C41.976,14.244 42.6528,15.9432 42.6528,17.7456 C42.6914235,19.3180267 42.0903765,20.8388314 40.9872,21.96 C39.0864,23.8968 36.5688,23.9328 33.8496,24 L22.8096,24 L22.8096,19.104 L24.9504,19.1376 L24.9504,4.8624 L22.8096,4.896 L22.8096,0 L33.2712,0 Z M31.1976,9.6528 C33.1368,9.6888 33.408,9.6888 33.8856,9.588 C35.0042764,9.35509743 35.7859106,8.34111304 35.7264,7.2 C35.7264,5.9424 35.0064,5.2296 34.5048,4.9896 C34.0032,4.7496 33.6192,4.7184 31.2048,4.6848 L31.1976,9.6528 Z M31.1976,19.104 L33.0696,19.104 C34.3944,19.104 36.264,19.0728 36.264,16.7952 C36.264,15.5952 35.6184,14.7888 34.8,14.4816 C34.224,14.2416 33.9528,14.2416 31.2,14.2416 L31.1976,19.104 Z" id="Shape"></path>
                <polygon id="Path" points="0 0 10.3008 0 10.3008 4.896 8.1912 4.8624 11.6928 18.5952 15.468 4.8624 13.3608 4.896 13.3608 0 22.8096 0 22.8096 4.896 21.2112 4.8624 15.264 24 7.512 24 1.4952 4.8624 0 4.896"></polygon>
            </g>
        </g>
    </g>
</svg>