<svg xmlns="http://www.w3.org/2000/svg" xmlns:xlink="http://www.w3.org/1999/xlink" viewBox="0,0,256,256" width="128px" height="128px" fill-rule="nonzero"><defs><linearGradient x1="32" y1="6.667" x2="32" y2="57.872" gradientUnits="userSpaceOnUse" id="color-1"><stop offset="0" stop-color="#ff0000"></stop><stop offset="1" stop-color="#ff0000"></stop></linearGradient><linearGradient x1="29.365" y1="17.25" x2="29.365" y2="46.571" gradientUnits="userSpaceOnUse" id="color-2"><stop offset="0" stop-color="#fb8585"></stop><stop offset="1" stop-color="#ee0734"></stop></linearGradient><linearGradient x1="20.879" y1="17.25" x2="20.879" y2="46.571" gradientUnits="userSpaceOnUse" id="color-3"><stop offset="0" stop-color="#fb8585"></stop><stop offset="1" stop-color="#ee0734"></stop></linearGradient><linearGradient x1="25.75" y1="17.25" x2="25.75" y2="46.571" gradientUnits="userSpaceOnUse" id="color-4"><stop offset="0" stop-color="#fb8585"></stop><stop offset="1" stop-color="#ee0734"></stop></linearGradient><linearGradient x1="43.904" y1="17.25" x2="43.904" y2="46.571" gradientUnits="userSpaceOnUse" id="color-5"><stop offset="0" stop-color="#fb8585"></stop><stop offset="1" stop-color="#ee0734"></stop></linearGradient><linearGradient x1="39.8" y1="17.25" x2="39.8" y2="46.571" gradientUnits="userSpaceOnUse" id="color-6"><stop offset="0" stop-color="#fb8585"></stop><stop offset="1" stop-color="#ee0734"></stop></linearGradient><linearGradient x1="30.077" y1="17.25" x2="30.077" y2="46.571" gradientUnits="userSpaceOnUse" id="color-7"><stop offset="0" stop-color="#fb8585"></stop><stop offset="1" stop-color="#ee0734"></stop></linearGradient></defs><g fill="none" fill-rule="nonzero" stroke="none" stroke-width="1" stroke-linecap="butt" stroke-linejoin="miter" stroke-miterlimit="10" stroke-dasharray="" stroke-dashoffset="0" font-family="none" font-weight="none" font-size="none" text-anchor="none" style="mix-blend-mode: normal"><g transform="scale(4,4)"><path d="M44,57h-24c-7.168,0 -13,-5.832 -13,-13v-24c0,-7.168 5.832,-13 13,-13h24c7.168,0 13,5.832 13,13v24c0,7.168 -5.832,13 -13,13zM20,9c-6.065,0 -11,4.935 -11,11v24c0,6.065 4.935,11 11,11h24c6.065,0 11,-4.935 11,-11v-24c0,-6.065 -4.935,-11 -11,-11z" fill="url(#color-1)"></path><path d="M35.999,17.268c-0.956,-0.553 -2.18,-0.224 -2.731,0.733l-11.539,19.999h4.618l10.385,-18c0.552,-0.958 0.224,-2.18 -0.733,-2.732z" fill="url(#color-2)"></path><path d="M20.812,41c-0.304,0 -0.597,0.044 -0.879,0.113l-1.665,2.887c-0.552,0.957 -0.224,2.18 0.733,2.732c0.314,0.182 0.658,0.268 0.997,0.268c0.691,0 1.364,-0.359 1.734,-1.001l2.025,-3.51c-0.672,-0.899 -1.735,-1.489 -2.945,-1.489z" fill="url(#color-3)"></path><path d="M36.5,38.875c0,-1.588 -1.287,-2.875 -2.875,-2.875h-16.625c-1.104,0 -2,0.896 -2,2c0,1.104 0.896,2 2,2h19.271c0.147,-0.346 0.229,-0.726 0.229,-1.125z" fill="url(#color-4)"></path><path d="M47,36h-8.192l2.308,4h5.884c1.104,0 2,-0.896 2,-2c0,-1.104 -0.896,-2 -2,-2z" fill="url(#color-5)"></path><path d="M45.732,44l-10.731,-18.592c-0.876,1.066 -1.402,2.43 -1.402,3.918c0,1.119 0.296,2.167 0.816,3.072l7.853,13.602c0.37,0.642 1.043,1 1.734,1c0.339,0 0.683,-0.086 0.997,-0.268c0.957,-0.552 1.285,-1.774 0.733,-2.732z" fill="url(#color-6)"></path><path d="M30.845,26.201l2.309,-4.002l-2.422,-4.199c-0.552,-0.957 -1.776,-1.286 -2.731,-0.733c-0.957,0.552 -1.285,1.775 -0.733,2.732z" fill="url(#color-7)"></path></g></g></svg>